<?xml version="1.0" encoding="UTF-8" standalone="no"?>
<!-- Created with Inkscape (http://www.inkscape.org/) -->

<svg
   xmlns:dc="http://purl.org/dc/elements/1.1/"
   xmlns:cc="http://creativecommons.org/ns#"
   xmlns:rdf="http://www.w3.org/1999/02/22-rdf-syntax-ns#"
   xmlns:svg="http://www.w3.org/2000/svg"
   xmlns="http://www.w3.org/2000/svg"
   xmlns:sodipodi="http://sodipodi.sourceforge.net/DTD/sodipodi-0.dtd"
   xmlns:inkscape="http://www.inkscape.org/namespaces/inkscape"
   width="210mm"
   height="297mm"
   viewBox="0 0 210 297"
   version="1.1"
   id="svg8"
   inkscape:export-filename="V:\Projects\Beyond20\images\dice24.png"
   inkscape:export-xdpi="6.2300901"
   inkscape:export-ydpi="6.2300901"
   inkscape:version="0.92.4 (5da689c313, 2019-01-14)"
   sodipodi:docname="beyond20-contour.svg">
  <defs
     id="defs2" />
  <sodipodi:namedview
     id="base"
     pagecolor="#ffffff"
     bordercolor="#666666"
     borderopacity="1.0"
     inkscape:pageopacity="0.0"
     inkscape:pageshadow="2"
     inkscape:zoom="1.4"
     inkscape:cx="414.28671"
     inkscape:cy="666.75094"
     inkscape:document-units="mm"
     inkscape:current-layer="g934"
     showgrid="false"
     inkscape:window-width="2560"
     inkscape:window-height="1017"
     inkscape:window-x="-8"
     inkscape:window-y="-8"
     inkscape:window-maximized="1" />
  <metadata
     id="metadata5">
    <rdf:RDF>
      <cc:Work
         rdf:about="">
        <dc:format>image/svg+xml</dc:format>
        <dc:type
           rdf:resource="http://purl.org/dc/dcmitype/StillImage" />
        <dc:title></dc:title>
      </cc:Work>
    </rdf:RDF>
  </metadata>
  <g
     inkscape:label="Layer 1"
     inkscape:groupmode="layer"
     id="layer1">
    <g
       id="layer1-1"
       inkscape:label="Layer 1"
       transform="matrix(1,0,0,0.99807229,87.458984,-2.2097531)">
      <g
         id="g934"
         transform="translate(-41.827681,-0.53557148)">
        <g
           transform="matrix(1.063645,0,0,1.0053731,-22.565246,-25.863925)"
           inkscape:label="Layer 1"
           id="layer1-32">
          <g
             id="layer1-3"
             inkscape:label="Layer 1"
             transform="translate(-1.1284247,29.47441)">
            <g
               inkscape:label="Layer 1"
               id="layer1-6"
               transform="matrix(0.33953312,0,0,0.31282697,-41.924226,-44.162242)">
              <text
                 transform="scale(0.89221871,1.1208014)"
                 id="text4546"
                 y="489.17465"
                 x="375.27869"
                 style="font-style:normal;font-variant:normal;font-weight:bold;font-stretch:normal;font-size:34.93566132px;line-height:1.25;font-family:Pristina;-inkscape-font-specification:'Pristina Bold';letter-spacing:0px;word-spacing:0px;fill:#ffffff;fill-opacity:1;stroke:none;stroke-width:0.87339163"
                 xml:space="preserve"><tspan
                   style="font-style:normal;font-variant:normal;font-weight:bold;font-stretch:normal;font-size:75.69393921px;font-family:'Wide Latin';-inkscape-font-specification:'Wide Latin Bold';fill:#ffffff;fill-opacity:1;stroke-width:0.87339163"
                   y="489.17465"
                   x="375.27869"
                   id="tspan4544"
                   sodipodi:role="line">B</tspan></text>
              <path
                 transform="matrix(0.77925633,0,0,0.84578172,123.4761,141.17147)"
                 inkscape:connector-curvature="0"
                 id="path4550"
                 d="m 222.45302,533.63245 c -3.49914,-0.62378 -7.14668,-2.28266 -10.30774,-4.68792 -4.25576,-3.23819 -9.32677,-9.75426 -11.6114,-14.92021 -0.34075,-0.7705 -0.58632,-1.42667 -0.54572,-1.45815 0.0406,-0.0315 1.40158,-0.86491 3.02438,-1.85205 l 2.95055,-1.7948 0.422,1.31523 c 1.47265,4.58972 4.9317,9.66794 8.15861,11.97766 3.29724,2.36004 7.32604,3.03669 10.92186,1.83434 2.10233,-0.70296 2.25901,-0.88997 1.13803,-1.35834 -1.648,-0.68858 -4.68759,-2.97181 -6.35768,-4.77567 -5.38905,-5.82067 -7.13044,-11.93344 -4.77251,-16.75288 0.82551,-1.68728 3.21358,-3.90489 5.17413,-4.8048 0.83136,-0.3816 1.51155,-0.76916 1.51155,-0.86125 0,-0.0921 -1.07979,-1.51737 -2.39953,-3.16731 -2.19092,-2.73908 -2.36108,-3.02853 -1.95717,-3.32942 0.65053,-0.48462 7.85309,-4.84749 8.00261,-4.84749 0.0702,0 1.73569,2.00188 3.70117,4.44863 2.74577,3.41811 3.49335,4.5014 3.22716,4.67641 -0.19055,0.12528 -0.94306,0.57505 -1.67227,0.99948 -0.7292,0.42442 -1.32582,0.8121 -1.32582,0.8615 0,0.0494 0.64665,0.2778 1.43701,0.50757 4.31498,1.2544 8.97158,4.80382 12.5858,9.59334 5.80805,7.69677 5.7631,14.88256 -0.13052,20.866 -3.1258,3.17343 -8.02713,6.0053 -12.37706,7.15116 -1.93536,0.50982 -6.87081,0.72242 -8.79744,0.37897 z m 11.96152,-16.49772 c 3.35856,-1.5376 4.91714,-3.33809 4.91714,-5.68034 0,-1.63888 -0.667,-3.02911 -2.23582,-4.6601 -1.71391,-1.78184 -2.82687,-2.29903 -4.96683,-2.30808 -1.49735,-0.006 -2.03113,0.11954 -3.43252,0.80944 -5.0867,2.50417 -6.05832,5.86309 -2.84411,9.83223 2.21956,2.7409 5.35403,3.47557 8.56214,2.00685 z"
                 style="fill:#000000;fill-opacity:1;stroke-width:0.25253814" />
              <path
                 transform="matrix(0.77925633,0,0,0.84578172,123.4761,141.17147)"
                 inkscape:connector-curvature="0"
                 id="path4552"
                 d="m 182.25564,458.54022 c -1.07279,-0.19494 -2.3154,-0.68076 -3.57667,-1.39837 -1.83618,-1.04471 -1.92748,-1.13878 -1.82717,-1.88267 0.0581,-0.43066 0.50053,-5.44235 0.98324,-11.13709 0.48272,-5.69473 0.93311,-10.75181 1.00087,-11.23794 0.12059,-0.86506 0.0885,-0.90238 -1.50514,-1.7519 -0.8956,-0.4774 -1.68163,-0.81474 -1.74675,-0.74962 -0.0651,0.0651 0.002,0.96711 0.15015,2.00443 0.36995,2.59825 0.10298,8.16239 -0.54519,11.36296 -1.68572,8.32379 -5.57329,10.28947 -10.69466,5.40754 -1.34851,-1.28547 -1.42904,-1.43035 -1.42697,-2.56756 0.001,-0.66287 0.0741,-1.80349 0.16189,-2.53472 l 0.15968,-1.32951 1.38215,1.52731 c 1.56406,1.72835 2.43677,2.26813 3.6671,2.26813 1.34475,0 2.38552,-1.41724 2.93004,-3.98991 0.38266,-1.80793 0.37272,-1.88413 -0.20523,-1.57482 -1.00113,0.53579 -2.44067,0.3085 -3.59564,-0.56772 -2.51816,-1.91042 -3.74603,-4.92681 -3.92869,-9.65119 -0.33574,-8.68366 3.73662,-12.59225 8.39884,-8.06109 1.11742,1.08601 2.89696,4.27904 2.89696,5.19801 0,0.23879 0.0975,0.49443 0.2167,0.56809 0.11918,0.0737 0.28688,-0.61766 0.37266,-1.53627 0.0858,-0.91861 0.19869,-1.71292 0.25091,-1.76514 0.0522,-0.0522 2.55461,1.28145 5.56088,2.96371 4.80611,2.68942 5.45235,3.1244 5.35341,3.60329 -0.0619,0.29955 -0.18348,1.41206 -0.27021,2.47226 l -0.15769,1.92762 -1.78855,-0.98313 c -0.98371,-0.54072 -1.81438,-0.95359 -1.84593,-0.91747 -0.0651,0.0745 -1.63333,18.0182 -1.63208,18.67387 6.3e-4,0.33264 0.4136,0.49483 1.89257,0.74334 l 1.89175,0.31788 -0.14511,2.16084 c -0.15964,2.37703 -0.24298,2.80605 -0.53687,2.76388 -0.10854,-0.0156 -0.9371,-0.16274 -1.84125,-0.32704 z M 171.26083,435.5358 c 0.37696,-0.772 0.51812,-1.70583 0.59874,-3.96094 0.0938,-2.62478 0.0461,-3.07359 -0.43264,-4.06242 -1.00656,-2.07926 -2.67466,-2.26173 -3.43602,-0.37584 -0.57781,1.43124 -0.81281,5.8146 -0.38363,7.15586 0.46654,1.45804 1.45779,2.42049 2.39795,2.32827 0.60675,-0.0595 0.86302,-0.28096 1.2556,-1.08493 z"
                 style="fill:#000000;fill-opacity:1;stroke-width:0.25253814" />
              <path
                 transform="matrix(0.77925633,0,0,0.84578172,123.4761,141.17147)"
                 inkscape:connector-curvature="0"
                 id="path4554"
                 d="m 195.50677,371.15946 c -0.3222,-0.49175 -0.34904,-0.79966 -0.138,-1.58341 0.89592,-3.32716 6.65908,-10.12357 11.05446,-13.03634 2.42203,-1.60505 5.68578,-3.10972 8.06531,-3.7183 2.36501,-0.60487 3.33495,-0.62483 4.1064,-0.0845 0.48046,0.33652 0.56346,0.56895 0.45088,1.26269 -0.0759,0.46763 -0.0766,0.85024 -0.002,0.85024 0.075,0 0.72133,-0.5259 1.43622,-1.16867 4.56324,-4.10291 11.12745,-7.19883 15.39761,-7.26209 2.1838,-0.0323 2.69597,0.27635 2.69597,1.62491 0,1.67021 -3.19155,6.40626 -6.69804,9.93945 -3.72007,3.74839 -8.05508,6.432 -13.08576,8.10083 -3.1965,1.06038 -4.7293,1.29882 -5.71763,0.88944 -0.87108,-0.36081 -1.1222,-0.95969 -0.87478,-2.0862 0.16781,-0.76403 0.15092,-0.78926 -0.29685,-0.44342 -0.26113,0.20168 -0.95854,0.79913 -1.54979,1.32765 -3.67919,3.28887 -9.60277,5.99816 -13.11437,5.99816 -1.12794,0 -1.39087,-0.0928 -1.73007,-0.61046 z m 10.11237,-6.04563 c 1.89864,-0.50567 3.61273,-1.32838 5.08755,-2.44188 1.56218,-1.17947 2.93325,-3.05214 2.81966,-3.85124 -0.0723,-0.50842 -0.21453,-0.55899 -1.50274,-0.53421 -3.64298,0.0701 -9.7658,4.70718 -8.96632,6.79059 0.17889,0.46618 0.91006,0.47666 2.56185,0.0367 z m 16.8292,-4.59409 c 2.47064,-0.8228 4.69167,-2.16978 6.41333,-3.88948 2.26248,-2.25991 2.66683,-3.81206 1.04365,-4.00629 -1.75114,-0.20953 -6.35787,1.60451 -8.84689,3.48374 -2.10248,1.58739 -3.71616,4.19522 -3.02414,4.88725 0.37127,0.37127 2.58932,0.13247 4.41405,-0.47522 z"
                 style="fill:#000000;fill-opacity:1;stroke-width:0.25253814" />
              <path
                 transform="matrix(0.77925633,0,0,0.84578172,123.4761,141.17147)"
                 inkscape:connector-curvature="0"
                 id="path4556"
                 d="m 286.55922,375.62112 c 0.004,-0.63359 1.16327,-7.37843 1.28462,-7.47526 0.0558,-0.0445 4.52766,-3.2532 9.93751,-7.13041 5.40984,-3.87721 10.55239,-7.74651 11.42787,-8.59845 4.26591,-4.15118 3.98624,-9.74376 -0.5648,-11.29446 -3.34875,-1.14103 -9.80499,0.0974 -15.46782,2.96694 -0.71511,0.36237 -1.34065,0.65886 -1.3901,0.65886 -0.0751,0 0.70414,-5.1525 1.21165,-8.01133 0.12842,-0.72343 0.28875,-0.85682 1.44117,-1.19905 2.27989,-0.67706 7.54969,-1.60801 10.80481,-1.90876 6.72512,-0.62136 12.82474,0.59174 15.85464,3.15317 2.89581,2.44808 3.82445,6.80161 2.35648,11.04734 -1.52438,4.40889 -4.05214,6.84433 -15.84812,15.26928 l -7.0134,5.00912 10.0317,0.066 10.03169,0.066 -0.12627,0.56531 c -0.12743,0.57049 -1.14458,6.91272 -1.14458,7.13678 0,0.0664 -7.38674,0.12079 -16.41498,0.12079 -15.46607,0 -16.41481,-0.0256 -16.41207,-0.44195 z"
                 style="fill:#000000;fill-opacity:1;stroke-width:0.25253814" />
              <path
                 transform="matrix(0.77925633,0,0,0.84578172,123.4761,141.17147)"
                 inkscape:connector-curvature="0"
                 id="path4558"
                 d="m 346.5001,375.95308 c -6.68458,-1.5166 -11.55602,-6.11444 -13.81202,-13.03629 -1.61375,-4.95129 -2.06135,-12.82064 -0.97895,-17.21115 1.6698,-6.77319 5.7026,-10.90025 11.94455,-12.22376 2.73427,-0.57975 8.54926,-0.36765 10.96166,0.39983 3.17386,1.00973 5.12087,2.19394 7.46147,4.5382 1.83281,1.83567 2.35634,2.56132 3.47256,4.8132 1.55587,3.13882 2.40731,6.2793 2.83945,10.47315 0.58835,5.70983 -0.0805,10.47492 -2.02608,14.43445 -1.7962,3.65551 -4.56661,6.05565 -8.46441,7.33312 -1.75529,0.57528 -2.53377,0.6732 -5.93464,0.74644 -2.71216,0.0584 -4.39015,-0.0236 -5.46359,-0.26719 z m 6.85471,-7.17952 c 3.05217,-1.38657 4.07994,-5.20054 3.62414,-13.44881 -0.46276,-8.37407 -2.02804,-12.82367 -5.05971,-14.38321 -2.17123,-1.11692 -5.69066,-0.76645 -7.06899,0.70394 -1.67535,1.78725 -2.23048,4.08198 -2.23048,9.22011 0,7.47217 1.14005,13.29758 3.11653,15.92486 1.6562,2.20154 5.14097,3.10863 7.61851,1.98311 z"
                 style="fill:#000000;fill-opacity:1;stroke-width:0.25253814" />
              <path
                 transform="matrix(0.77925633,0,0,0.84578172,123.4761,141.17147)"
                 inkscape:connector-curvature="0"
                 id="path4560"
                 d="m 428.1437,357.19667 c -4.51683,-4.82067 -8.15673,-8.85497 -8.08866,-8.9651 0.0681,-0.11013 1.05676,-0.20024 2.1971,-0.20024 h 2.07334 l 9.7973,5.14684 c 5.38851,2.83076 10.53104,5.38771 11.42784,5.68211 1.75807,0.57713 3.63071,0.6933 4.41446,0.27384 0.73722,-0.39454 0.63364,-1.73542 -0.22561,-2.92054 -1.16689,-1.60946 -4.27676,-4.32854 -6.98205,-6.10469 -1.39241,-0.91418 -2.63962,-1.75562 -2.77157,-1.86985 -0.13195,-0.11424 0.96932,-0.20771 2.44727,-0.20771 h 2.68717 l 1.84589,1.4914 c 2.55275,2.06251 6.23434,5.51038 8.24347,7.72012 2.2197,2.44134 3.37013,4.37486 3.51788,5.91248 0.10386,1.08082 0.044,1.26675 -0.5611,1.74271 -1.57796,1.24123 -5.04404,0.8908 -9.38816,-0.94917 -1.37038,-0.58042 -5.85888,-2.80833 -9.97446,-4.95089 -4.11557,-2.14257 -7.56626,-3.89558 -7.66818,-3.89558 -0.10193,0 1.29022,1.56258 3.09366,3.4724 1.80344,1.90982 4.10052,4.35313 5.10462,5.42957 l 1.82563,1.95717 h -2.40171 -2.40171 z"
                 style="fill:#000000;fill-opacity:1;stroke-width:0.25253814" />
              <path
                 transform="matrix(0.77925633,0,0,0.84578172,123.4761,141.17147)"
                 inkscape:connector-curvature="0"
                 id="path4562"
                 d="m 474.2982,457.17368 c -1.23668,-0.78116 -1.70909,-2.07471 -1.8263,-5.00078 -0.15004,-3.7454 0.68697,-6.24731 2.91514,-8.71362 l 0.88418,-0.97868 h -1.17835 c -1.4699,0 -2.4714,-0.50356 -3.12694,-1.57225 -1.45516,-2.37227 -1.34472,-7.84157 0.23087,-11.43347 1.85814,-4.23604 6.33843,-8.20948 11.79401,-10.45976 0.9305,-0.38381 5.13704,-2.71605 9.34786,-5.18275 4.21083,-2.4667 7.73374,-4.4077 7.82869,-4.31333 0.095,0.0944 0.22945,1.34567 0.2989,2.78066 l 0.12627,2.60908 -2.58851,1.55144 -2.58852,1.55143 -0.004,1.05966 c -0.006,1.65318 1.04282,20.21073 1.1643,20.59663 0.069,0.21929 1.06887,-0.54542 2.757,-2.10866 l 2.64868,-2.45273 0.002,1.22478 c 0.001,0.67362 0.0703,1.96345 0.15396,2.86627 l 0.15217,1.6415 -2.64073,2.32273 c -2.25082,1.97978 -7.93345,5.8042 -8.21138,5.52627 -0.049,-0.049 -0.42163,-5.92613 -0.82816,-13.06038 -0.40649,-7.13425 -0.76984,-13.27908 -0.80741,-13.65517 l -0.0683,-0.68379 -1.32582,0.76777 c -1.17504,0.68046 -1.32583,0.86224 -1.32583,1.59837 v 0.83059 l -2.01261,0.11651 c -1.66883,0.0966 -2.3329,0.27481 -3.88774,1.04325 -4.23575,2.09342 -6.54561,6.4675 -5.02153,9.50903 0.83863,1.67361 2.59175,1.63039 5.60956,-0.1383 0.85914,-0.50353 1.61421,-0.86336 1.67795,-0.79962 0.0637,0.0637 0.18454,1.24296 0.26847,2.6205 l 0.15258,2.50462 -2.01728,1.17213 c -3.46219,2.01167 -5.16703,4.66798 -4.75583,7.41008 0.5182,3.45558 3.58281,2.91771 7.99092,-1.40248 l 2.19026,-2.14658 0.1507,2.90419 0.1507,2.90419 -1.32136,1.24468 c -2.0364,1.91821 -4.92174,3.96958 -7.09102,5.04144 -2.46058,1.21579 -4.64306,1.47787 -5.86731,0.70455 z"
                 style="fill:#000000;fill-opacity:1;stroke-width:0.25253814" />
              <path
                 transform="matrix(0.77925633,0,0,0.84578172,123.4761,141.17147)"
                 inkscape:connector-curvature="0"
                 id="path4564"
                 d="m 428.51498,533.11091 c -6.71873,-4.73633 -12.28719,-8.50325 -12.37437,-8.37092 -1.37861,2.09249 -3.19168,4.31258 -3.41389,4.18025 -0.92175,-0.54894 -6.71987,-4.68497 -6.71987,-4.79355 0,-0.0722 0.74838,-1.15095 1.66307,-2.39716 0.91469,-1.24621 1.62496,-2.29381 1.57836,-2.32801 -0.0466,-0.0342 -1.61888,-1.12418 -3.49397,-2.42217 -1.8751,-1.298 -3.44402,-2.38461 -3.4865,-2.4147 -0.10934,-0.0774 5.5305,-7.68683 5.69724,-7.68683 0.0755,0 1.64052,1.0796 3.47779,2.39911 1.83728,1.31951 3.40362,2.39911 3.48076,2.39911 0.0771,0 2.4874,-3.18198 5.35613,-7.07106 2.86873,-3.88909 5.29171,-7.07107 5.3844,-7.07107 0.0927,0 2.02766,1.33529 4.29995,2.96732 l 4.13142,2.96733 6.54437,14.14213 c 3.59941,7.77818 6.60787,14.38761 6.68548,14.68763 0.10787,0.41703 -0.61192,1.57675 -3.05644,4.9245 -1.75865,2.40844 -3.27416,4.40613 -3.36781,4.4393 -0.0936,0.0332 -5.6674,-3.81487 -12.38612,-8.55121 z m 10.0272,-4.98275 c -0.61607,-1.57641 -9.47413,-20.48837 -9.59729,-20.4902 -0.22765,-0.003 -6.64933,8.75944 -6.64933,9.07347 0,0.24681 15.72125,11.57005 16.12035,11.6107 0.11575,0.0118 0.17257,-0.0755 0.12627,-0.19397 z"
                 style="fill:#000000;fill-opacity:1;stroke-width:0.25253814" />
              <path
                 transform="matrix(0.77925633,0,0,0.84578172,123.4761,141.17147)"
                 inkscape:connector-curvature="0"
                 id="path4566"
                 d="m 365.57007,626.42863 -1.11827,-1.11827 2.9314,-1.57571 c 1.61227,-0.86664 3.63406,-1.97959 4.49287,-2.47322 l 1.56146,-0.89752 -4.59202,-4.60225 c -2.52562,-2.53123 -4.73159,-4.60224 -4.90215,-4.60224 -0.17057,0 -2.08127,1.21628 -4.24599,2.70285 l -3.93587,2.70284 -1.02702,-0.98395 c -0.56486,-0.54117 -1.02702,-1.09008 -1.02702,-1.2198 0,-0.43443 7.26846,-5.10113 12.32142,-7.91095 l 5,-2.78037 5.89286,5.86312 5.89286,5.86312 6.8714,-3.81486 c 3.77927,-2.09817 6.84851,-3.97557 6.82052,-4.172 -0.028,-0.19643 -2.00192,-2.40109 -4.38653,-4.89926 l -4.33566,-4.54211 -4.2599,2.83719 -4.2599,2.8372 -0.99282,-0.95119 c -0.54605,-0.52315 -0.99283,-1.05126 -0.99283,-1.17359 0,-0.74088 16.30927,-10.71538 17.52068,-10.71538 0.15163,0 2.74977,2.57143 5.77364,5.71428 3.02387,3.14286 5.6295,5.71429 5.79028,5.71429 0.16079,0 2.21719,-1.05862 4.56978,-2.35248 l 4.27744,-2.35248 1.03409,0.99073 c 0.56875,0.5449 1.03409,1.10148 1.03409,1.23685 0,0.18145 -44.8886,24.86642 -49.84884,27.41269 -0.62349,0.32006 -0.91993,0.20251 -1.85997,-0.73753 z"
                 style="fill:#000000;fill-opacity:1;stroke-width:0.35714287" />
              <path
                 transform="matrix(0.77925633,0,0,0.84578172,123.4761,141.17147)"
                 inkscape:connector-curvature="0"
                 id="path4568"
                 d="m 284.31209,615.24793 -2.42346,-1.62577 0.82013,-0.66553 0.82012,-0.66552 -1.07142,-0.22932 c -3.54526,-0.75877 -4.49127,-1.06624 -6.3854,-2.07532 -2.15436,-1.14771 -5.93603,-4.42869 -5.93603,-5.15009 0,-0.22205 0.8371,-0.88701 1.86022,-1.47771 l 1.86023,-1.07399 0.51517,0.77665 c 1.84758,2.78533 4.91126,4.77412 7.89964,5.12805 1.22355,0.14491 2.45679,-0.0191 4.25787,-0.56612 2.41883,-0.7347 3.33263,-1.46384 1.83455,-1.46384 -1.41367,0 -4.62599,-1.49045 -6.20173,-2.87747 -3.74304,-3.29476 -2.89514,-6.83177 2.26453,-9.44638 3.97409,-2.01382 8.75082,-1.9543 13.03095,0.16236 4.53514,2.24278 6.44804,4.97152 5.56088,7.93259 -0.85386,2.84995 -5.34619,6.60278 -10.20374,8.52408 -1.17857,0.46616 -2.27516,0.95578 -2.43686,1.08805 -0.1617,0.13227 0.28851,0.6005 1.00047,1.04051 l 1.29447,0.80002 -2.78619,1.73741 c -1.5324,0.95557 -2.86825,1.74094 -2.96856,1.74526 -0.10031,0.004 -1.27294,-0.72374 -2.60584,-1.61792 z m 9.83324,-12.70113 c 3.06969,-1.56604 3.91164,-3.38904 2.27522,-4.92638 -1.78051,-1.6727 -4.54626,-1.62398 -7.54413,0.13289 -2.88979,1.69353 -3.07213,3.8372 -0.43975,5.16997 1.768,0.89513 3.4311,0.78545 5.70866,-0.37648 z"
                 style="fill:#000000;fill-opacity:1;stroke-width:0.35714287" />
            </g>
          </g>
          <path
             transform="scale(0.26458333)"
             style="fill:#000000;fill-opacity:1;stroke-width:0.71428573"
             d="m 327.29123,758.24873 c -1.85986,-0.36244 -1.01462,-0.39557 -3.03748,-35.84042 -0.77212,-13.52905 -1.12427,-21.81505 -1.71759,-25.13628 -7.18287,-2.20897 -35.14942,-5.07738 -76.93121,-10.62549 l -75.9669,-10.08749 -4.90249,-3.66875 c -2.69637,-2.01782 -4.8327,-3.73565 -4.74739,-3.8174 0.0853,-0.0818 34.70868,4.47211 76.94082,10.1197 42.23214,5.64758 78.02856,10.2786 79.54759,10.29115 2.28901,0.0189 2.70567,-0.19215 2.43355,-1.23274 -0.18059,-0.69056 -24.40574,-39.01593 -53.98027,-84.97715 -29.57453,-45.96123 -53.66136,-83.21421 -53.85124,-83.70528 -0.18987,-0.49107 -0.21246,-0.42097 -0.48548,-0.42097 -0.27303,0 -12.02322,31.90925 -26.51055,71.21704 -14.92484,40.49484 -27.35964,76.03491 -27.64429,75.50627 -0.2763,-0.51315 -0.99553,-9.5171 -1.27182,-12.93397 l -0.19214,-4.93875 24.95953,-67.32362 c 13.64187,-36.79638 25.26034,-67.78792 25.14004,-68.41262 -0.19571,-1.01622 -7.58876,-2.94584 -41.23183,-17.56981 l -3.4907,-1.51734 1.34784,-3.01529 c 0.71566,-1.23245 2.05216,-2.76972 2.4708,-2.93658 0.41863,-0.16686 9.63067,3.95781 20.97039,8.68632 11.33972,4.72852 22.71259,9.53157 23.6013,9.47817 2.09401,-0.12584 11.64422,-12.20308 46.33475,-50.29489 l 46.56068,-51.12579 7.45435,-5.04065 c 4.8251,-2.83293 14.04226,-8.11356 14.1319,-8.01068 0.0896,0.10288 -26.72654,29.12351 -54.36938,59.56993 -27.64283,30.44643 -49.06376,53.56727 -50.06788,56.00497 0.29201,0.83339 210.47065,0.49867 211.3894,-0.3366 0.31377,-0.28525 -23.15034,-25.93929 -50.61898,-56.73981 -27.46863,-30.80052 -52.81777,-58.76988 -52.74845,-58.85694 0.0693,-0.0871 6.77101,3.52568 10.87443,5.57702 l 7.36117,4.03221 46.81696,52.01895 c 31.44471,34.93864 45.43752,52.67827 48.1551,53.01352 0,0 13.88708,-5.05815 27.38927,-11.12713 l 25.59539,-11.50465 2.05734,2.48733 c 1.13154,1.29881 3.14591,3.62678 2.88291,3.88977 -0.263,0.263 -13.52361,5.1101 -27.7655,11.20137 -25.4988,10.90585 -26.39789,10.36349 -26.33461,12.32242 0.0355,1.09793 13.77153,32.1289 29.72657,69.3422 l 29.43904,68.55456 -0.44164,5.44238 c -0.27264,3.35965 -0.56835,10.34349 -0.83826,10.5103 -0.38485,0.23785 -59.23667,-137.64877 -62.7001,-146.82447 -0.4658,-1.23403 -0.5707,-1.87975 -0.77922,-1.86449 -0.87359,0.0639 -106.34427,171.42179 -105.82037,171.92841 0.31561,0.3052 37.05598,-4.07951 81.64527,-9.74379 44.58928,-5.66428 81.67564,-10.30041 82.41412,-10.3025 2.0149,-0.006 -7.84202,6.93095 -10.52287,7.4053 -1.23662,0.21881 -36.64125,4.76485 -78.67697,10.10232 -42.03571,5.33747 -75.43096,9.11908 -76.61569,9.95333 -0.70934,1.87547 2.71163,52.30683 2.92376,58.82974 0.0701,2.15518 -0.018,2.66958 -1.78414,2.58007 -1.05566,-0.0535 -3.66624,0.0337 -4.51883,-0.13241 z m 0.83781,-75.86582 c 6.7166,-10.37489 103.38858,-167.21817 103.65022,-168.18766 0.32019,-1.18648 -5.13883,-0.7461 -107.42454,-0.73572 -59.26904,0.006 -107.63909,0.31601 -108.11704,0.61971 -0.60568,0.38488 7.59835,12.52225 26.80847,42.37393 15.15896,23.55635 40.6629,61.69171 55.28759,85.5083 14.52312,23.65118 27.03053,42.27419 27.48881,42.26932 0.45828,-0.005 1.46158,-0.54277 2.30649,-1.84788 z"
             id="path863"
             inkscape:connector-curvature="0"
             sodipodi:nodetypes="cscscccsccscsscscscscccssscccsccscccssscccscscscccssccscsccccscsscc" />
        </g>
        <g
           id="layer1-7"
           inkscape:label="Layer 1"
           transform="matrix(1.0592738,0,0,1,-23.268513,4.5357082)">
          <g
             inkscape:label="Layer 1"
             id="layer1-6-3"
             transform="matrix(0.33953312,0,0,0.31282697,-41.924226,-44.162242)">
            <path
               sodipodi:nodetypes="cccccccccccccccccccccccccsccccccccccccccccccccccccscccscccscccccccccccccccccccccccccccccccccccccccccccccccccccccccccccccccccccccccccccccccccccccccccccccccccccccccccccccccccccccccccccccccccccccccccccccccccccccccccccccccccccccccccccccccccccccccccccccccccccccccccccccccccccccccccccccccccccccccccccccccccccccccccccccccccccccccccccccccccccccccccccaccacccaccccccca"
               inkscape:connector-curvature="0"
               style="opacity:0.2;fill:#969696;fill-opacity:1;stroke:none"
               d="m 379.93009,375.66819 c -0.57042,0.0194 -1.22613,0.22811 -1.58536,0.73174 l -80.67309,96.52739 c -1.34246,1.68064 -1.43314,2.05568 0.3659,2.07325 l 161.59017,-0.42695 c 2.22078,-0.18146 2.23054,-0.0702 0.79265,-1.95128 l -79.2707,-96.52721 c -0.16389,-0.25521 -0.64874,-0.44097 -1.21957,-0.42694 z m 15.48842,8.59792 72.74609,88.47818 c 0.97444,1.1817 1.21194,1.24884 2.92697,0.42695 l 38.35462,-17.56151 c 2.51233,-1.13388 2.1642,-1.3661 0.48784,-2.50017 z m -33.96442,3.23171 c -0.034,-0.0722 -0.6255,0.36995 -1.95133,1.28062 l -105.61284,69.5143 33.04973,15.00045 c 1.72413,0.56842 2.23917,0.59885 3.35363,-0.79279 l 69.6974,-83.23414 c 0.98238,-1.13662 1.49615,-1.69624 1.46341,-1.76844 z m 33.41562,35.24496 c 4.66845,2e-4 8.40589,1.60961 11.15883,4.81732 2.75167,3.19172 4.30469,7.75185 4.69539,13.65895 0.3892,5.8913 -0.59833,10.45126 -2.92704,13.65895 -2.32984,3.19171 -5.81962,4.75624 -10.48806,4.75624 -4.68462,0 -8.40725,-1.56453 -11.15899,-4.75624 -2.75269,-3.20769 -4.30574,-7.76765 -4.69516,-13.65895 -0.3907,-5.9071 0.59706,-10.46723 2.92689,-13.65895 2.32872,-3.20771 5.80344,-4.81712 10.48814,-4.81732 z m -30.67179,0.36587 c 4.2558,2e-4 7.44666,0.93134 9.51251,2.80497 2.0817,1.87381 2.82561,4.45458 2.31708,7.80511 -0.29394,1.93743 -1.06122,3.74393 -2.31708,5.42709 -1.25346,1.66736 -3.683,3.95778 -7.31726,6.76841 l -8.59774,6.64662 h 15.61021 l -0.97563,6.70753 h -25.85443 l 1.03658,-6.70753 14.6956,-11.46374 c 1.31806,-1.04803 2.34108,-2.04846 3.04885,-3.04888 0.70753,-1.00042 1.11652,-2.09099 1.28042,-3.17084 0.25311,-1.66735 -0.0642,-3.00827 -1.0364,-4.0245 -0.95756,-1.01622 -2.41067,-1.52434 -4.26858,-1.52453 -1.42924,1.9e-4 -3.02419,0.35649 -4.81727,0.97563 -1.79071,0.60354 -3.73333,1.47634 -5.85386,2.68302 l 1.1587,-7.80512 c 2.16791,-0.68277 4.27197,-1.17507 6.34171,-1.52434 2.07202,-0.36527 4.09936,-0.5487 6.03659,-0.5489 z m 31.09863,5.91492 c -1.9691,0 -3.30365,0.91787 -4.02456,2.74389 -0.72196,1.8104 -0.9647,4.94434 -0.67069,9.39052 0.29703,4.49399 0.92682,7.6096 1.89015,9.45161 0.96343,1.84201 2.42144,2.80495 4.39046,2.80495 1.95323,0 3.30466,-0.96294 4.02448,-2.80495 0.71981,-1.84201 0.96786,-4.95762 0.67083,-9.45161 -0.29409,-4.44618 -0.92926,-7.58012 -1.89038,-9.39052 -0.94639,-1.82602 -2.42138,-2.74389 -4.39029,-2.74389 z m -87.68571,4.93909 c 0.84542,0 1.43914,0.2117 1.70731,0.67083 0.5305,0.91321 -0.14034,2.69374 -1.95117,5.4269 -1.81654,2.74291 -3.90266,5.07488 -6.28068,6.95143 -2.38434,1.87147 -5.02166,3.2797 -7.86613,4.20754 -1.84482,0.60178 -3.11772,0.75963 -3.84142,0.42674 -0.73034,-0.33796 -0.89867,-1.18188 -0.48785,-2.4391 -1.37424,1.45332 -2.80959,2.71404 -4.3295,3.71972 -1.51968,1.00551 -3.06802,1.78641 -4.69515,2.31714 -2.42177,0.78989 -3.88017,0.73232 -4.26842,-0.18341 -0.38855,-0.91514 0.30804,-2.67091 2.01212,-5.24406 1.69164,-2.55423 3.58331,-4.72092 5.73198,-6.46362 2.13573,-1.73858 4.45613,-2.98661 6.89049,-3.7806 1.62713,-0.53074 2.76246,-0.67044 3.41474,-0.36586 0.6584,0.29504 0.81134,1.02364 0.48777,2.13412 1.48686,-1.60806 3.05854,-2.96263 4.75634,-4.08539 1.69117,-1.12804 3.45992,-2.02016 5.3049,-2.62214 1.42227,-0.46382 2.5694,-0.6683 3.41467,-0.67065 z m 162.74895,1.46345 c 1.45159,1.21467 2.79287,2.47091 4.02448,3.65864 1.24088,1.18774 2.36754,2.33352 3.35364,3.47581 2.16633,2.50935 3.31821,4.46062 3.41481,5.85383 0.10532,1.40259 -0.83845,2.12085 -2.80508,2.13412 -1.1369,0 -2.46621,-0.33132 -3.96337,-0.91457 -1.48805,-0.58323 -3.85204,-1.77839 -7.13442,-3.65863 l -7.80513,-4.45147 7.98818,9.20769 -3.96362,0.0605 -13.17117,-15.24436 3.96353,-0.0605 13.35402,7.62227 c 1.20536,0.67924 2.23971,1.20062 3.10994,1.52434 0.87015,0.32392 1.62238,0.49211 2.25604,0.48782 0.97856,0 1.44091,-0.36782 1.46357,-1.03652 0.031,-0.65954 -0.39577,-1.52648 -1.34153,-2.62212 -0.7275,-0.84257 -1.6986,-1.80552 -2.92695,-2.80497 -1.21909,-0.99944 -2.69588,-2.03323 -4.39045,-3.17082 l 4.57351,-0.0605 z m -168.17574,4.08558 c -0.4525,0.0429 -1.0636,0.13658 -1.7685,0.36586 -1.42204,0.46383 -2.68161,1.11067 -3.78064,1.89022 -1.11162,0.78381 -2.01498,1.67457 -2.68295,2.68301 -0.67418,1.01796 -0.82079,1.71223 -0.42675,2.01234 0.39377,0.30011 1.33446,0.2158 2.74389,-0.24392 1.40936,-0.45972 2.66267,-1.09701 3.78055,-1.89039 1.10528,-0.78889 2.00888,-1.7259 2.68303,-2.74388 0.66799,-1.00843 0.81421,-1.65646 0.42692,-1.95128 -0.20018,-0.14441 -0.52328,-0.16392 -0.97555,-0.12101 z m -13.2322,4.63429 c -0.36241,0.0274 -0.83235,0.11897 -1.40246,0.3048 -1.14031,0.37209 -2.1409,0.92723 -3.04877,1.58539 -0.92102,0.66246 -1.69458,1.40806 -2.25636,2.25628 -0.57423,0.86714 -0.72974,1.43672 -0.42677,1.70736 0.30907,0.26128 1.06758,0.18537 2.19528,-0.18342 1.14029,-0.37192 2.12782,-0.86207 3.04884,-1.52453 0.92705,-0.67184 1.68182,-1.44999 2.25597,-2.31714 0.56186,-0.84823 0.73614,-1.38502 0.42699,-1.6463 -0.15414,-0.13069 -0.43048,-0.21055 -0.79272,-0.18343 z m 226.10426,15.61021 c -0.32817,0.0235 -0.84598,0.21231 -1.64631,0.5487 l -39.39143,17.98845 c -1.39865,0.63494 -1.3106,1.49059 -0.79271,2.56106 l 45.79406,116.16191 -3.29269,-135.30883 c -0.1015,-1.47966 -0.12292,-1.99051 -0.67092,-1.95129 z m -264.15417,3.59758 -4.20738,131.65038 38.78161,-113.90585 c 0.57289,-1.68219 0.55941,-1.76726 -0.60982,-2.31714 z m 210.85994,17.07368 -165.24893,0.42695 c -2.3616,-0.0351 -2.26382,-0.0331 -1.0975,1.8902 l 83.90491,141.52872 c 1.41696,2.1597 1.26544,2.09177 2.74399,-0.121 l 80.61228,-141.77265 c 0.70556,-1.12609 1.21085,-1.91401 -0.91475,-1.95129 z m 6.58556,3.71973 c -0.15225,0.0645 -0.31859,0.63826 -0.79265,1.52435 l -81.16103,142.80914 c -0.88551,1.50756 -1.09609,2.04787 1.03665,1.70737 l 128.84525,-17.74433 c 2.04343,-0.46654 1.98138,-1.1973 1.28066,-3.2319 L 468.95716,485.7326 c -0.3215,-1.18288 -0.45694,-1.64942 -0.60972,-1.58542 z m -178.17612,1.34151 c -0.15801,0.11311 -0.30011,0.71495 -0.60981,1.5854 l -41.15962,121.16207 c -0.70087,2.57414 -0.78013,3.54118 1.8293,4.02453 l 123.11343,17.8054 c 2.32801,0.34987 2.03027,-0.82265 1.4634,-1.95126 L 291.02499,486.76912 c -0.52732,-1.06776 -0.69637,-1.394 -0.85367,-1.28043 z m 224.03113,1.5854 0.24391,5.06102 -4.14635,2.68301 0.97555,18.35432 4.14644,-4.0856 0.30503,5.00016 -4.20754,4.02452 -4.45131,2.86603 -1.21957,-23.35446 -1.95117,1.21954 0.0602,1.46346 c -0.91317,-0.12686 -1.80314,-0.0703 -2.68295,0.12101 -0.88743,0.21015 -1.72397,0.56568 -2.56108,1.09759 -1.24356,0.79027 -2.18131,1.7144 -2.80492,2.80497 -0.63176,1.09583 -0.91849,2.28104 -0.85375,3.53668 0.0658,1.29391 0.44182,2.03051 1.15855,2.25628 0.70919,0.24352 1.7242,-0.0194 3.04884,-0.85369 l 1.89048,-1.21956 0.24384,4.75626 -1.95125,1.21953 c -1.17851,0.74872 -2.07442,1.62348 -2.62209,2.56106 -0.54699,0.95007 -0.79243,1.99107 -0.73179,3.17083 0.0562,1.09075 0.3842,1.77234 0.97555,2.01216 0.59166,0.23979 1.41513,0.0409 2.4391,-0.60978 0.75595,-0.4802 1.49788,-1.13311 2.25636,-1.89021 0.75843,-0.75709 1.51881,-1.61663 2.25606,-2.62213 l 0.24385,5.36603 c -0.9055,0.99476 -1.78294,1.84063 -2.68297,2.62212 -0.89994,0.7813 -1.80504,1.45447 -2.68303,2.01216 -2.3651,1.50287 -4.13281,2.05939 -5.366,1.58542 -1.24055,-0.45601 -1.94778,-1.89393 -2.07322,-4.3293 -0.0854,-1.66172 0.10353,-3.21259 0.60975,-4.6343 0.50655,-1.4092 1.30315,-2.71326 2.37816,-3.84167 -1.25284,0.28527 -2.22965,0.0352 -2.9268,-0.79261 -0.70485,-0.80978 -1.06138,-2.1345 -1.1587,-4.0245 -0.14439,-2.81589 0.40147,-5.39491 1.70734,-7.74424 1.30656,-2.33666 3.32621,-4.35311 5.9758,-6.03668 0.93466,-0.59397 1.84983,-1.10538 2.80493,-1.46345 0.19534,-0.076 0.41248,-0.11706 0.60981,-0.18342 l 0.0602,-0.0605 12.68333,-8.049 z m -259.82475,9.87834 c 0.6217,-0.0409 1.27353,0.16196 2.0122,0.60977 1.6284,0.98637 2.81966,2.836 3.53663,5.54885 0.0451,0.17173 0.0817,0.3725 0.12099,0.5489 l 0.24385,-3.23191 8.78082,5.30515 -0.36589,4.45125 -2.86579,-1.70737 -1.28066,15.97609 2.98799,0.60977 -0.30494,4.3295 -3.04901,-0.54889 -3.04886,-1.8902 1.64655,-20.36647 -2.50021,-1.46346 c 0.37493,2.33586 0.49744,5.02611 0.24393,8.1099 -0.33681,4.09768 -1.14507,6.9526 -2.37801,8.65879 -1.23938,1.71401 -2.75483,2.01627 -4.57343,0.91477 -0.57615,-0.34909 -1.11805,-0.77466 -1.64624,-1.28062 -0.52827,-0.50597 -1.08301,-1.09194 -1.58553,-1.76825 l 0.36598,-4.57341 c 0.49047,0.82051 1.01247,1.49509 1.4634,2.01235 0.44989,0.52841 0.89392,0.94832 1.34153,1.21956 0.96238,0.58284 1.75344,0.49385 2.37808,-0.24391 0.62368,-0.72666 1.01984,-2.11871 1.28058,-4.14646 -0.41408,0.31882 -0.828,0.48294 -1.28058,0.48781 -0.45377,0.0195 -0.95423,-0.1191 -1.46349,-0.42694 -1.28137,-0.77604 -2.20461,-2.1269 -2.86585,-4.08539 -0.6672,-1.96202 -0.92951,-4.18238 -0.73179,-6.58557 0.21841,-2.65785 0.8188,-4.53634 1.8293,-5.60991 0.50488,-0.53134 1.08554,-0.81174 1.7074,-0.8537 z m 0.91444,4.45127 c -0.22727,0.0506 -0.44006,0.21267 -0.60957,0.48781 -0.34553,0.55805 -0.55148,1.5372 -0.67076,2.98798 -0.1191,1.45078 -0.1033,2.64399 0.12101,3.5367 0.21967,0.90032 0.6488,1.54464 1.21963,1.8902 0.56497,0.34246 0.99584,0.19319 1.34144,-0.36585 0.33901,-0.55027 0.55149,-1.53704 0.67067,-2.98781 0.1191,-1.45077 0.0976,-2.63637 -0.12101,-3.53669 -0.22617,-0.89271 -0.59341,-1.48707 -1.15846,-1.82931 -0.28544,-0.17369 -0.56527,-0.23417 -0.79287,-0.18344 z m 44.20887,49.02585 5.73189,7.80511 -2.68303,1.76845 c 0.4139,0.0937 0.79707,0.16391 1.21954,0.30478 3.36735,1.13585 6.46558,3.64714 9.26859,7.43925 3.08943,4.18002 4.33538,8.12962 3.71954,11.95158 -0.63811,3.81553 -3.11541,7.13271 -7.3782,9.93944 -4.36905,2.87656 -8.76575,3.8362 -13.23213,2.80495 -4.48879,-1.03788 -8.4402,-3.92947 -11.8906,-8.59791 -1.09346,-1.47947 -2.08606,-2.93357 -2.92689,-4.45126 -0.84098,-1.5177 -1.56452,-3.08186 -2.19518,-4.69538 l 4.87823,-3.23169 c 0.47722,1.7144 1.06334,3.26449 1.70732,4.63428 0.63193,1.3776 1.3458,2.63149 2.19517,3.78061 1.82606,2.47052 3.82289,4.00168 5.97575,4.63427 2.14098,0.64041 4.37871,0.37797 6.76838,-0.85366 -1.27915,-0.56706 -2.43572,-1.33685 -3.53663,-2.25627 -1.11272,-0.91164 -2.14366,-2.04651 -3.1097,-3.35368 -2.43135,-3.28946 -3.63284,-6.4597 -3.53678,-9.51247 0.0856,-3.06721 1.40111,-5.44738 3.96353,-7.13447 0.70856,-0.46635 1.45263,-0.81816 2.1951,-1.09759 l -3.96338,-5.36601 z m 155.61445,11.28093 6.64642,5.12211 10.61011,24.87879 -5.30498,7.866 -19.14691,-14.63459 -2.6221,3.90255 -5.67087,-4.32931 2.68304,-3.96363 -5.54898,-4.20735 4.57336,-6.70751 5.48787,4.26843 z m -151.04125,6.15861 c -1.03302,0.0683 -2.13258,0.5167 -3.29278,1.28063 -1.54677,1.01836 -2.396,2.11579 -2.62194,3.35367 -0.24861,1.23145 0.13655,2.62036 1.21948,4.08558 1.07231,1.45078 2.27682,2.28065 3.59765,2.49998 1.29833,0.21288 2.72162,-0.20098 4.26839,-1.21956 1.54702,-1.01836 2.4346,-2.1224 2.68305,-3.35365 0.22617,-1.23789 -0.14829,-2.6348 -1.21948,-4.08558 -1.083,-1.46502 -2.29931,-2.28709 -3.59764,-2.5 -0.3304,-0.0547 -0.69232,-0.0839 -1.03673,-0.0604 z m 153.66311,2.62215 -5.24396,7.74402 12.68326,9.75641 z m -199.57906,48.84283 120.79628,68.53866 c 1.56406,0.94791 1.92955,0.60252 1.70734,-1.0366 l -2.56108,-48.05017 c -0.0697,-1.55068 -0.27982,-2.18211 -1.89014,-2.4391 z m 249.76366,0.121 -122.62575,16.95175 c -1.61801,0.23844 -1.3259,1.03281 -1.34152,2.19518 l 2.6221,48.90401 c 0.13476,1.48384 0.0914,2.01584 1.89017,1.09758 z m -76.77065,21.09822 8.96372,9.93935 7.0123,-4.14643 1.95126,2.19516 -18.41523,10.91492 -2.98773,1.76837 -18.41523,10.91503 -1.95132,-2.13429 7.01238,-4.14644 -7.13436,-7.8051 -6.58547,4.81722 -1.95134,-2.13419 6.58572,-4.75624 7.50008,-4.4514 9.02466,9.9394 3.96354,-2.37818 2.98782,-1.76836 3.96362,-2.37807 -7.07341,-7.8051 -6.64665,4.81722 -1.89007,-2.1343 6.58547,-4.81711 z m -80.61231,1.46347 c 2.3727,0.10779 4.51511,0.9278 6.52469,2.43904 2.23116,1.67797 3.17588,3.48766 2.80508,5.488 -0.3712,2.00045 -2.0271,4.00046 -4.93931,5.97588 -1.73215,1.17494 -3.52198,1.97755 -5.30498,2.50001 l 2.07321,1.58545 -4.6954,3.17079 -4.14635,-3.10982 1.52443,-1.03661 c -2.59698,-0.17033 -4.94267,-1.01976 -7.07333,-2.62206 -0.80232,-0.6033 -1.53014,-1.18988 -2.13432,-1.82933 -0.61204,-0.63396 -1.1331,-1.31339 -1.58538,-2.01225 l 3.35388,-2.25613 c 0.35511,0.76466 0.75556,1.40883 1.21948,2.01225 0.47184,0.59791 1.01977,1.17517 1.64631,1.64642 1.31417,0.98833 2.76632,1.49406 4.2684,1.52437 1.51009,0.0247 3.04465,-0.46856 4.69539,-1.40243 -0.92419,-0.11621 -1.77064,-0.30451 -2.56116,-0.60981 -0.79057,-0.3053 -1.50754,-0.70234 -2.19501,-1.21952 -1.74997,-1.31586 -2.6206,-2.78937 -2.62209,-4.32946 0.0191,-1.53964 0.91928,-2.88918 2.68287,-4.08546 1.94959,-1.32237 4.09866,-1.93005 6.46359,-1.82933 z m 1.03673,3.65867 c -0.92364,0.0685 -1.87541,0.4452 -2.92689,1.15855 -1.05978,0.71884 -1.68514,1.41803 -1.82929,2.07321 -0.13663,0.64979 0.20375,1.24894 0.97556,1.82934 0.77179,0.58039 1.58441,0.85639 2.50005,0.79272 0.92348,-0.0696 1.92827,-0.50067 2.9879,-1.21952 1.05164,-0.71334 1.62413,-1.35706 1.76835,-2.01224 0.1444,-0.65529 -0.14241,-1.30991 -0.9146,-1.89042 -0.77197,-0.58028 -1.63744,-0.80081 -2.56108,-0.73164 z"
               id="path3922"
               inkscape:export-xdpi="4.1533933"
               inkscape:export-ydpi="4.1533933" />
            <text
               transform="scale(0.89221871,1.1208014)"
               id="text4546-5"
               y="489.17465"
               x="375.27869"
               style="font-style:normal;font-variant:normal;font-weight:bold;font-stretch:normal;font-size:34.93566132px;line-height:1.25;font-family:Pristina;-inkscape-font-specification:'Pristina Bold';letter-spacing:0px;word-spacing:0px;fill:#000000;fill-opacity:1;stroke:none;stroke-width:0.87339163"
               xml:space="preserve"><tspan
                 style="font-style:normal;font-variant:normal;font-weight:bold;font-stretch:normal;font-size:75.69393921px;font-family:'Wide Latin';-inkscape-font-specification:'Wide Latin Bold';fill:#ffffff;fill-opacity:1;stroke-width:0.87339163"
                 y="489.17465"
                 x="375.27869"
                 id="tspan4544-2"
                 sodipodi:role="line">B</tspan></text>
            <path
               transform="matrix(0.77925633,0,0,0.84578172,123.4761,141.17147)"
               inkscape:connector-curvature="0"
               id="path4550-3"
               d="m 222.45302,533.63245 c -3.49914,-0.62378 -7.14668,-2.28266 -10.30774,-4.68792 -4.25576,-3.23819 -9.32677,-9.75426 -11.6114,-14.92021 -0.34075,-0.7705 -0.58632,-1.42667 -0.54572,-1.45815 0.0406,-0.0315 1.40158,-0.86491 3.02438,-1.85205 l 2.95055,-1.7948 0.422,1.31523 c 1.47265,4.58972 4.9317,9.66794 8.15861,11.97766 3.29724,2.36004 7.32604,3.03669 10.92186,1.83434 2.10233,-0.70296 2.25901,-0.88997 1.13803,-1.35834 -1.648,-0.68858 -4.68759,-2.97181 -6.35768,-4.77567 -5.38905,-5.82067 -7.13044,-11.93344 -4.77251,-16.75288 0.82551,-1.68728 3.21358,-3.90489 5.17413,-4.8048 0.83136,-0.3816 1.51155,-0.76916 1.51155,-0.86125 0,-0.0921 -1.07979,-1.51737 -2.39953,-3.16731 -2.19092,-2.73908 -2.36108,-3.02853 -1.95717,-3.32942 0.65053,-0.48462 7.85309,-4.84749 8.00261,-4.84749 0.0702,0 1.73569,2.00188 3.70117,4.44863 2.74577,3.41811 3.49335,4.5014 3.22716,4.67641 -0.19055,0.12528 -0.94306,0.57505 -1.67227,0.99948 -0.7292,0.42442 -1.32582,0.8121 -1.32582,0.8615 0,0.0494 0.64665,0.2778 1.43701,0.50757 4.31498,1.2544 8.97158,4.80382 12.5858,9.59334 5.80805,7.69677 5.7631,14.88256 -0.13052,20.866 -3.1258,3.17343 -8.02713,6.0053 -12.37706,7.15116 -1.93536,0.50982 -6.87081,0.72242 -8.79744,0.37897 z m 11.96152,-16.49772 c 3.35856,-1.5376 4.91714,-3.33809 4.91714,-5.68034 0,-1.63888 -0.667,-3.02911 -2.23582,-4.6601 -1.71391,-1.78184 -2.82687,-2.29903 -4.96683,-2.30808 -1.49735,-0.006 -2.03113,0.11954 -3.43252,0.80944 -5.0867,2.50417 -6.05832,5.86309 -2.84411,9.83223 2.21956,2.7409 5.35403,3.47557 8.56214,2.00685 z"
               style="fill:#000000;fill-opacity:1;stroke-width:0.25253814" />
            <path
               transform="matrix(0.77925633,0,0,0.84578172,123.4761,141.17147)"
               inkscape:connector-curvature="0"
               id="path4552-9"
               d="m 182.25564,458.54022 c -1.07279,-0.19494 -2.3154,-0.68076 -3.57667,-1.39837 -1.83618,-1.04471 -1.92748,-1.13878 -1.82717,-1.88267 0.0581,-0.43066 0.50053,-5.44235 0.98324,-11.13709 0.48272,-5.69473 0.93311,-10.75181 1.00087,-11.23794 0.12059,-0.86506 0.0885,-0.90238 -1.50514,-1.7519 -0.8956,-0.4774 -1.68163,-0.81474 -1.74675,-0.74962 -0.0651,0.0651 0.002,0.96711 0.15015,2.00443 0.36995,2.59825 0.10298,8.16239 -0.54519,11.36296 -1.68572,8.32379 -5.57329,10.28947 -10.69466,5.40754 -1.34851,-1.28547 -1.42904,-1.43035 -1.42697,-2.56756 0.001,-0.66287 0.0741,-1.80349 0.16189,-2.53472 l 0.15968,-1.32951 1.38215,1.52731 c 1.56406,1.72835 2.43677,2.26813 3.6671,2.26813 1.34475,0 2.38552,-1.41724 2.93004,-3.98991 0.38266,-1.80793 0.37272,-1.88413 -0.20523,-1.57482 -1.00113,0.53579 -2.44067,0.3085 -3.59564,-0.56772 -2.51816,-1.91042 -3.74603,-4.92681 -3.92869,-9.65119 -0.33574,-8.68366 3.73662,-12.59225 8.39884,-8.06109 1.11742,1.08601 2.89696,4.27904 2.89696,5.19801 0,0.23879 0.0975,0.49443 0.2167,0.56809 0.11918,0.0737 0.28688,-0.61766 0.37266,-1.53627 0.0858,-0.91861 0.19869,-1.71292 0.25091,-1.76514 0.0522,-0.0522 2.55461,1.28145 5.56088,2.96371 4.80611,2.68942 5.45235,3.1244 5.35341,3.60329 -0.0619,0.29955 -0.18348,1.41206 -0.27021,2.47226 l -0.15769,1.92762 -1.78855,-0.98313 c -0.98371,-0.54072 -1.81438,-0.95359 -1.84593,-0.91747 -0.0651,0.0745 -1.63333,18.0182 -1.63208,18.67387 6.3e-4,0.33264 0.4136,0.49483 1.89257,0.74334 l 1.89175,0.31788 -0.14511,2.16084 c -0.15964,2.37703 -0.24298,2.80605 -0.53687,2.76388 -0.10854,-0.0156 -0.9371,-0.16274 -1.84125,-0.32704 z M 171.26083,435.5358 c 0.37696,-0.772 0.51812,-1.70583 0.59874,-3.96094 0.0938,-2.62478 0.0461,-3.07359 -0.43264,-4.06242 -1.00656,-2.07926 -2.67466,-2.26173 -3.43602,-0.37584 -0.57781,1.43124 -0.81281,5.8146 -0.38363,7.15586 0.46654,1.45804 1.45779,2.42049 2.39795,2.32827 0.60675,-0.0595 0.86302,-0.28096 1.2556,-1.08493 z"
               style="fill:#000000;fill-opacity:1;stroke-width:0.25253814" />
            <path
               transform="matrix(0.77925633,0,0,0.84578172,123.4761,141.17147)"
               inkscape:connector-curvature="0"
               id="path4554-6"
               d="m 195.50677,371.15946 c -0.3222,-0.49175 -0.34904,-0.79966 -0.138,-1.58341 0.89592,-3.32716 6.65908,-10.12357 11.05446,-13.03634 2.42203,-1.60505 5.68578,-3.10972 8.06531,-3.7183 2.36501,-0.60487 3.33495,-0.62483 4.1064,-0.0845 0.48046,0.33652 0.56346,0.56895 0.45088,1.26269 -0.0759,0.46763 -0.0766,0.85024 -0.002,0.85024 0.075,0 0.72133,-0.5259 1.43622,-1.16867 4.56324,-4.10291 11.12745,-7.19883 15.39761,-7.26209 2.1838,-0.0323 2.69597,0.27635 2.69597,1.62491 0,1.67021 -3.19155,6.40626 -6.69804,9.93945 -3.72007,3.74839 -8.05508,6.432 -13.08576,8.10083 -3.1965,1.06038 -4.7293,1.29882 -5.71763,0.88944 -0.87108,-0.36081 -1.1222,-0.95969 -0.87478,-2.0862 0.16781,-0.76403 0.15092,-0.78926 -0.29685,-0.44342 -0.26113,0.20168 -0.95854,0.79913 -1.54979,1.32765 -3.67919,3.28887 -9.60277,5.99816 -13.11437,5.99816 -1.12794,0 -1.39087,-0.0928 -1.73007,-0.61046 z m 10.11237,-6.04563 c 1.89864,-0.50567 3.61273,-1.32838 5.08755,-2.44188 1.56218,-1.17947 2.93325,-3.05214 2.81966,-3.85124 -0.0723,-0.50842 -0.21453,-0.55899 -1.50274,-0.53421 -3.64298,0.0701 -9.7658,4.70718 -8.96632,6.79059 0.17889,0.46618 0.91006,0.47666 2.56185,0.0367 z m 16.8292,-4.59409 c 2.47064,-0.8228 4.69167,-2.16978 6.41333,-3.88948 2.26248,-2.25991 2.66683,-3.81206 1.04365,-4.00629 -1.75114,-0.20953 -6.35787,1.60451 -8.84689,3.48374 -2.10248,1.58739 -3.71616,4.19522 -3.02414,4.88725 0.37127,0.37127 2.58932,0.13247 4.41405,-0.47522 z"
               style="fill:#000000;fill-opacity:1;stroke-width:0.25253814" />
            <path
               transform="matrix(0.77925633,0,0,0.84578172,123.4761,141.17147)"
               inkscape:connector-curvature="0"
               id="path4556-8"
               d="m 286.55922,375.62112 c 0.004,-0.63359 1.16327,-7.37843 1.28462,-7.47526 0.0558,-0.0445 4.52766,-3.2532 9.93751,-7.13041 5.40984,-3.87721 10.55239,-7.74651 11.42787,-8.59845 4.26591,-4.15118 3.98624,-9.74376 -0.5648,-11.29446 -3.34875,-1.14103 -9.80499,0.0974 -15.46782,2.96694 -0.71511,0.36237 -1.34065,0.65886 -1.3901,0.65886 -0.0751,0 0.70414,-5.1525 1.21165,-8.01133 0.12842,-0.72343 0.28875,-0.85682 1.44117,-1.19905 2.27989,-0.67706 7.54969,-1.60801 10.80481,-1.90876 6.72512,-0.62136 12.82474,0.59174 15.85464,3.15317 2.89581,2.44808 3.82445,6.80161 2.35648,11.04734 -1.52438,4.40889 -4.05214,6.84433 -15.84812,15.26928 l -7.0134,5.00912 10.0317,0.066 10.03169,0.066 -0.12627,0.56531 c -0.12743,0.57049 -1.14458,6.91272 -1.14458,7.13678 0,0.0664 -7.38674,0.12079 -16.41498,0.12079 -15.46607,0 -16.41481,-0.0256 -16.41207,-0.44195 z"
               style="fill:#000000;fill-opacity:1;stroke-width:0.25253814" />
            <path
               transform="matrix(0.77925633,0,0,0.84578172,123.4761,141.17147)"
               inkscape:connector-curvature="0"
               id="path4558-7"
               d="m 346.5001,375.95308 c -6.68458,-1.5166 -11.55602,-6.11444 -13.81202,-13.03629 -1.61375,-4.95129 -2.06135,-12.82064 -0.97895,-17.21115 1.6698,-6.77319 5.7026,-10.90025 11.94455,-12.22376 2.73427,-0.57975 8.54926,-0.36765 10.96166,0.39983 3.17386,1.00973 5.12087,2.19394 7.46147,4.5382 1.83281,1.83567 2.35634,2.56132 3.47256,4.8132 1.55587,3.13882 2.40731,6.2793 2.83945,10.47315 0.58835,5.70983 -0.0805,10.47492 -2.02608,14.43445 -1.7962,3.65551 -4.56661,6.05565 -8.46441,7.33312 -1.75529,0.57528 -2.53377,0.6732 -5.93464,0.74644 -2.71216,0.0584 -4.39015,-0.0236 -5.46359,-0.26719 z m 6.85471,-7.17952 c 3.05217,-1.38657 4.07994,-5.20054 3.62414,-13.44881 -0.46276,-8.37407 -2.02804,-12.82367 -5.05971,-14.38321 -2.17123,-1.11692 -5.69066,-0.76645 -7.06899,0.70394 -1.67535,1.78725 -2.23048,4.08198 -2.23048,9.22011 0,7.47217 1.14005,13.29758 3.11653,15.92486 1.6562,2.20154 5.14097,3.10863 7.61851,1.98311 z"
               style="fill:#000000;fill-opacity:1;stroke-width:0.25253814" />
            <path
               transform="matrix(0.77925633,0,0,0.84578172,123.4761,141.17147)"
               inkscape:connector-curvature="0"
               id="path4560-8"
               d="m 428.1437,357.19667 c -4.51683,-4.82067 -8.15673,-8.85497 -8.08866,-8.9651 0.0681,-0.11013 1.05676,-0.20024 2.1971,-0.20024 h 2.07334 l 9.7973,5.14684 c 5.38851,2.83076 10.53104,5.38771 11.42784,5.68211 1.75807,0.57713 3.63071,0.6933 4.41446,0.27384 0.73722,-0.39454 0.63364,-1.73542 -0.22561,-2.92054 -1.16689,-1.60946 -4.27676,-4.32854 -6.98205,-6.10469 -1.39241,-0.91418 -2.63962,-1.75562 -2.77157,-1.86985 -0.13195,-0.11424 0.96932,-0.20771 2.44727,-0.20771 h 2.68717 l 1.84589,1.4914 c 2.55275,2.06251 6.23434,5.51038 8.24347,7.72012 2.2197,2.44134 3.37013,4.37486 3.51788,5.91248 0.10386,1.08082 0.044,1.26675 -0.5611,1.74271 -1.57796,1.24123 -5.04404,0.8908 -9.38816,-0.94917 -1.37038,-0.58042 -5.85888,-2.80833 -9.97446,-4.95089 -4.11557,-2.14257 -7.56626,-3.89558 -7.66818,-3.89558 -0.10193,0 1.29022,1.56258 3.09366,3.4724 1.80344,1.90982 4.10052,4.35313 5.10462,5.42957 l 1.82563,1.95717 h -2.40171 -2.40171 z"
               style="fill:#000000;fill-opacity:1;stroke-width:0.25253814" />
            <path
               transform="matrix(0.77925633,0,0,0.84578172,123.4761,141.17147)"
               inkscape:connector-curvature="0"
               id="path4562-3"
               d="m 474.2982,457.17368 c -1.23668,-0.78116 -1.70909,-2.07471 -1.8263,-5.00078 -0.15004,-3.7454 0.68697,-6.24731 2.91514,-8.71362 l 0.88418,-0.97868 h -1.17835 c -1.4699,0 -2.4714,-0.50356 -3.12694,-1.57225 -1.45516,-2.37227 -1.34472,-7.84157 0.23087,-11.43347 1.85814,-4.23604 6.33843,-8.20948 11.79401,-10.45976 0.9305,-0.38381 5.13704,-2.71605 9.34786,-5.18275 4.21083,-2.4667 7.73374,-4.4077 7.82869,-4.31333 0.095,0.0944 0.22945,1.34567 0.2989,2.78066 l 0.12627,2.60908 -2.58851,1.55144 -2.58852,1.55143 -0.004,1.05966 c -0.006,1.65318 1.04282,20.21073 1.1643,20.59663 0.069,0.21929 1.06887,-0.54542 2.757,-2.10866 l 2.64868,-2.45273 0.002,1.22478 c 0.001,0.67362 0.0703,1.96345 0.15396,2.86627 l 0.15217,1.6415 -2.64073,2.32273 c -2.25082,1.97978 -7.93345,5.8042 -8.21138,5.52627 -0.049,-0.049 -0.42163,-5.92613 -0.82816,-13.06038 -0.40649,-7.13425 -0.76984,-13.27908 -0.80741,-13.65517 l -0.0683,-0.68379 -1.32582,0.76777 c -1.17504,0.68046 -1.32583,0.86224 -1.32583,1.59837 v 0.83059 l -2.01261,0.11651 c -1.66883,0.0966 -2.3329,0.27481 -3.88774,1.04325 -4.23575,2.09342 -6.54561,6.4675 -5.02153,9.50903 0.83863,1.67361 2.59175,1.63039 5.60956,-0.1383 0.85914,-0.50353 1.61421,-0.86336 1.67795,-0.79962 0.0637,0.0637 0.18454,1.24296 0.26847,2.6205 l 0.15258,2.50462 -2.01728,1.17213 c -3.46219,2.01167 -5.16703,4.66798 -4.75583,7.41008 0.5182,3.45558 3.58281,2.91771 7.99092,-1.40248 l 2.19026,-2.14658 0.1507,2.90419 0.1507,2.90419 -1.32136,1.24468 c -2.0364,1.91821 -4.92174,3.96958 -7.09102,5.04144 -2.46058,1.21579 -4.64306,1.47787 -5.86731,0.70455 z"
               style="fill:#000000;fill-opacity:1;stroke-width:0.25253814" />
            <path
               transform="matrix(0.77925633,0,0,0.84578172,123.4761,141.17147)"
               inkscape:connector-curvature="0"
               id="path4564-9"
               d="m 428.51498,533.11091 c -6.71873,-4.73633 -12.28719,-8.50325 -12.37437,-8.37092 -1.37861,2.09249 -3.19168,4.31258 -3.41389,4.18025 -0.92175,-0.54894 -6.71987,-4.68497 -6.71987,-4.79355 0,-0.0722 0.74838,-1.15095 1.66307,-2.39716 0.91469,-1.24621 1.62496,-2.29381 1.57836,-2.32801 -0.0466,-0.0342 -1.61888,-1.12418 -3.49397,-2.42217 -1.8751,-1.298 -3.44402,-2.38461 -3.4865,-2.4147 -0.10934,-0.0774 5.5305,-7.68683 5.69724,-7.68683 0.0755,0 1.64052,1.0796 3.47779,2.39911 1.83728,1.31951 3.40362,2.39911 3.48076,2.39911 0.0771,0 2.4874,-3.18198 5.35613,-7.07106 2.86873,-3.88909 5.29171,-7.07107 5.3844,-7.07107 0.0927,0 2.02766,1.33529 4.29995,2.96732 l 4.13142,2.96733 6.54437,14.14213 c 3.59941,7.77818 6.60787,14.38761 6.68548,14.68763 0.10787,0.41703 -0.61192,1.57675 -3.05644,4.9245 -1.75865,2.40844 -3.27416,4.40613 -3.36781,4.4393 -0.0936,0.0332 -5.6674,-3.81487 -12.38612,-8.55121 z m 10.0272,-4.98275 c -0.61607,-1.57641 -9.47413,-20.48837 -9.59729,-20.4902 -0.22765,-0.003 -6.64933,8.75944 -6.64933,9.07347 0,0.24681 15.72125,11.57005 16.12035,11.6107 0.11575,0.0118 0.17257,-0.0755 0.12627,-0.19397 z"
               style="fill:#000000;fill-opacity:1;stroke-width:0.25253814" />
            <path
               transform="matrix(0.77925633,0,0,0.84578172,123.4761,141.17147)"
               inkscape:connector-curvature="0"
               id="path4566-5"
               d="m 365.57007,626.42863 -1.11827,-1.11827 2.9314,-1.57571 c 1.61227,-0.86664 3.63406,-1.97959 4.49287,-2.47322 l 1.56146,-0.89752 -4.59202,-4.60225 c -2.52562,-2.53123 -4.73159,-4.60224 -4.90215,-4.60224 -0.17057,0 -2.08127,1.21628 -4.24599,2.70285 l -3.93587,2.70284 -1.02702,-0.98395 c -0.56486,-0.54117 -1.02702,-1.09008 -1.02702,-1.2198 0,-0.43443 7.26846,-5.10113 12.32142,-7.91095 l 5,-2.78037 5.89286,5.86312 5.89286,5.86312 6.8714,-3.81486 c 3.77927,-2.09817 6.84851,-3.97557 6.82052,-4.172 -0.028,-0.19643 -2.00192,-2.40109 -4.38653,-4.89926 l -4.33566,-4.54211 -4.2599,2.83719 -4.2599,2.8372 -0.99282,-0.95119 c -0.54605,-0.52315 -0.99283,-1.05126 -0.99283,-1.17359 0,-0.74088 16.30927,-10.71538 17.52068,-10.71538 0.15163,0 2.74977,2.57143 5.77364,5.71428 3.02387,3.14286 5.6295,5.71429 5.79028,5.71429 0.16079,0 2.21719,-1.05862 4.56978,-2.35248 l 4.27744,-2.35248 1.03409,0.99073 c 0.56875,0.5449 1.03409,1.10148 1.03409,1.23685 0,0.18145 -44.8886,24.86642 -49.84884,27.41269 -0.62349,0.32006 -0.91993,0.20251 -1.85997,-0.73753 z"
               style="fill:#000000;fill-opacity:1;stroke-width:0.35714287" />
            <path
               transform="matrix(0.77925633,0,0,0.84578172,123.4761,141.17147)"
               inkscape:connector-curvature="0"
               id="path4568-9"
               d="m 284.31209,615.24793 -2.42346,-1.62577 0.82013,-0.66553 0.82012,-0.66552 -1.07142,-0.22932 c -3.54526,-0.75877 -4.49127,-1.06624 -6.3854,-2.07532 -2.15436,-1.14771 -5.93603,-4.42869 -5.93603,-5.15009 0,-0.22205 0.8371,-0.88701 1.86022,-1.47771 l 1.86023,-1.07399 0.51517,0.77665 c 1.84758,2.78533 4.91126,4.77412 7.89964,5.12805 1.22355,0.14491 2.45679,-0.0191 4.25787,-0.56612 2.41883,-0.7347 3.33263,-1.46384 1.83455,-1.46384 -1.41367,0 -4.62599,-1.49045 -6.20173,-2.87747 -3.74304,-3.29476 -2.89514,-6.83177 2.26453,-9.44638 3.97409,-2.01382 8.75082,-1.9543 13.03095,0.16236 4.53514,2.24278 6.44804,4.97152 5.56088,7.93259 -0.85386,2.84995 -5.34619,6.60278 -10.20374,8.52408 -1.17857,0.46616 -2.27516,0.95578 -2.43686,1.08805 -0.1617,0.13227 0.28851,0.6005 1.00047,1.04051 l 1.29447,0.80002 -2.78619,1.73741 c -1.5324,0.95557 -2.86825,1.74094 -2.96856,1.74526 -0.10031,0.004 -1.27294,-0.72374 -2.60584,-1.61792 z m 9.83324,-12.70113 c 3.06969,-1.56604 3.91164,-3.38904 2.27522,-4.92638 -1.78051,-1.6727 -4.54626,-1.62398 -7.54413,0.13289 -2.88979,1.69353 -3.07213,3.8372 -0.43975,5.16997 1.768,0.89513 3.4311,0.78545 5.70866,-0.37648 z"
               style="fill:#000000;fill-opacity:1;stroke-width:0.35714287" />
          </g>
        </g>
      </g>
    </g>
  </g>
</svg>
