<?xml version="1.0" encoding="UTF-8" standalone="no"?>
<!-- Created with Inkscape (http://www.inkscape.org/) -->

<svg
   xmlns:dc="http://purl.org/dc/elements/1.1/"
   xmlns:cc="http://creativecommons.org/ns#"
   xmlns:rdf="http://www.w3.org/1999/02/22-rdf-syntax-ns#"
   xmlns:svg="http://www.w3.org/2000/svg"
   xmlns="http://www.w3.org/2000/svg"
   xmlns:sodipodi="http://sodipodi.sourceforge.net/DTD/sodipodi-0.dtd"
   xmlns:inkscape="http://www.inkscape.org/namespaces/inkscape"
   width="210mm"
   height="297mm"
   viewBox="0 0 210 297"
   version="1.1"
   id="svg8"
   inkscape:version="0.92.4 (5da689c313, 2019-01-14)"
   sodipodi:docname="beyond20-contour.svg">
  <defs
     id="defs2" />
  <sodipodi:namedview
     id="base"
     pagecolor="#ffffff"
     bordercolor="#666666"
     borderopacity="1.0"
     inkscape:pageopacity="0.0"
     inkscape:pageshadow="2"
     inkscape:zoom="2.8"
     inkscape:cx="260.28902"
     inkscape:cy="563.78583"
     inkscape:document-units="mm"
     inkscape:current-layer="layer1"
     showgrid="false"
     inkscape:window-width="2560"
     inkscape:window-height="1017"
     inkscape:window-x="-8"
     inkscape:window-y="-8"
     inkscape:window-maximized="1" />
  <metadata
     id="metadata5">
    <rdf:RDF>
      <cc:Work
         rdf:about="">
        <dc:format>image/svg+xml</dc:format>
        <dc:type
           rdf:resource="http://purl.org/dc/dcmitype/StillImage" />
        <dc:title></dc:title>
      </cc:Work>
    </rdf:RDF>
  </metadata>
  <g
     inkscape:label="Layer 1"
     inkscape:groupmode="layer"
     id="layer1">
    <g
       id="layer1-3"
       inkscape:label="Layer 1"
       transform="translate(-1.1284247,29.47441)">
      <g
         inkscape:label="Layer 1"
         id="layer1-6"
         transform="matrix(0.33953312,0,0,0.31282697,-41.924226,-44.162242)">
        <text
           transform="scale(0.89221871,1.1208014)"
           id="text4546"
           y="489.17465"
           x="375.27869"
           style="font-style:normal;font-variant:normal;font-weight:bold;font-stretch:normal;font-size:34.93566132px;line-height:1.25;font-family:Pristina;-inkscape-font-specification:'Pristina Bold';letter-spacing:0px;word-spacing:0px;fill:#ffffff;fill-opacity:1;stroke:none;stroke-width:0.87339163;"
           xml:space="preserve"><tspan
             style="font-style:normal;font-variant:normal;font-weight:bold;font-stretch:normal;font-size:75.69393921px;font-family:'Wide Latin';-inkscape-font-specification:'Wide Latin Bold';fill:#ffffff;fill-opacity:1;stroke-width:0.87339163;"
             y="489.17465"
             x="375.27869"
             id="tspan4544"
             sodipodi:role="line">B</tspan></text>
        <path
           transform="matrix(0.77925633,0,0,0.84578172,123.4761,141.17147)"
           inkscape:connector-curvature="0"
           id="path4550"
           d="m 222.45302,533.63245 c -3.49914,-0.62378 -7.14668,-2.28266 -10.30774,-4.68792 -4.25576,-3.23819 -9.32677,-9.75426 -11.6114,-14.92021 -0.34075,-0.7705 -0.58632,-1.42667 -0.54572,-1.45815 0.0406,-0.0315 1.40158,-0.86491 3.02438,-1.85205 l 2.95055,-1.7948 0.422,1.31523 c 1.47265,4.58972 4.9317,9.66794 8.15861,11.97766 3.29724,2.36004 7.32604,3.03669 10.92186,1.83434 2.10233,-0.70296 2.25901,-0.88997 1.13803,-1.35834 -1.648,-0.68858 -4.68759,-2.97181 -6.35768,-4.77567 -5.38905,-5.82067 -7.13044,-11.93344 -4.77251,-16.75288 0.82551,-1.68728 3.21358,-3.90489 5.17413,-4.8048 0.83136,-0.3816 1.51155,-0.76916 1.51155,-0.86125 0,-0.0921 -1.07979,-1.51737 -2.39953,-3.16731 -2.19092,-2.73908 -2.36108,-3.02853 -1.95717,-3.32942 0.65053,-0.48462 7.85309,-4.84749 8.00261,-4.84749 0.0702,0 1.73569,2.00188 3.70117,4.44863 2.74577,3.41811 3.49335,4.5014 3.22716,4.67641 -0.19055,0.12528 -0.94306,0.57505 -1.67227,0.99948 -0.7292,0.42442 -1.32582,0.8121 -1.32582,0.8615 0,0.0494 0.64665,0.2778 1.43701,0.50757 4.31498,1.2544 8.97158,4.80382 12.5858,9.59334 5.80805,7.69677 5.7631,14.88256 -0.13052,20.866 -3.1258,3.17343 -8.02713,6.0053 -12.37706,7.15116 -1.93536,0.50982 -6.87081,0.72242 -8.79744,0.37897 z m 11.96152,-16.49772 c 3.35856,-1.5376 4.91714,-3.33809 4.91714,-5.68034 0,-1.63888 -0.667,-3.02911 -2.23582,-4.6601 -1.71391,-1.78184 -2.82687,-2.29903 -4.96683,-2.30808 -1.49735,-0.006 -2.03113,0.11954 -3.43252,0.80944 -5.0867,2.50417 -6.05832,5.86309 -2.84411,9.83223 2.21956,2.7409 5.35403,3.47557 8.56214,2.00685 z"
           style="fill:#000000;fill-opacity:1;stroke-width:0.25253814" />
        <path
           transform="matrix(0.77925633,0,0,0.84578172,123.4761,141.17147)"
           inkscape:connector-curvature="0"
           id="path4552"
           d="m 182.25564,458.54022 c -1.07279,-0.19494 -2.3154,-0.68076 -3.57667,-1.39837 -1.83618,-1.04471 -1.92748,-1.13878 -1.82717,-1.88267 0.0581,-0.43066 0.50053,-5.44235 0.98324,-11.13709 0.48272,-5.69473 0.93311,-10.75181 1.00087,-11.23794 0.12059,-0.86506 0.0885,-0.90238 -1.50514,-1.7519 -0.8956,-0.4774 -1.68163,-0.81474 -1.74675,-0.74962 -0.0651,0.0651 0.002,0.96711 0.15015,2.00443 0.36995,2.59825 0.10298,8.16239 -0.54519,11.36296 -1.68572,8.32379 -5.57329,10.28947 -10.69466,5.40754 -1.34851,-1.28547 -1.42904,-1.43035 -1.42697,-2.56756 0.001,-0.66287 0.0741,-1.80349 0.16189,-2.53472 l 0.15968,-1.32951 1.38215,1.52731 c 1.56406,1.72835 2.43677,2.26813 3.6671,2.26813 1.34475,0 2.38552,-1.41724 2.93004,-3.98991 0.38266,-1.80793 0.37272,-1.88413 -0.20523,-1.57482 -1.00113,0.53579 -2.44067,0.3085 -3.59564,-0.56772 -2.51816,-1.91042 -3.74603,-4.92681 -3.92869,-9.65119 -0.33574,-8.68366 3.73662,-12.59225 8.39884,-8.06109 1.11742,1.08601 2.89696,4.27904 2.89696,5.19801 0,0.23879 0.0975,0.49443 0.2167,0.56809 0.11918,0.0737 0.28688,-0.61766 0.37266,-1.53627 0.0858,-0.91861 0.19869,-1.71292 0.25091,-1.76514 0.0522,-0.0522 2.55461,1.28145 5.56088,2.96371 4.80611,2.68942 5.45235,3.1244 5.35341,3.60329 -0.0619,0.29955 -0.18348,1.41206 -0.27021,2.47226 l -0.15769,1.92762 -1.78855,-0.98313 c -0.98371,-0.54072 -1.81438,-0.95359 -1.84593,-0.91747 -0.0651,0.0745 -1.63333,18.0182 -1.63208,18.67387 6.3e-4,0.33264 0.4136,0.49483 1.89257,0.74334 l 1.89175,0.31788 -0.14511,2.16084 c -0.15964,2.37703 -0.24298,2.80605 -0.53687,2.76388 -0.10854,-0.0156 -0.9371,-0.16274 -1.84125,-0.32704 z M 171.26083,435.5358 c 0.37696,-0.772 0.51812,-1.70583 0.59874,-3.96094 0.0938,-2.62478 0.0461,-3.07359 -0.43264,-4.06242 -1.00656,-2.07926 -2.67466,-2.26173 -3.43602,-0.37584 -0.57781,1.43124 -0.81281,5.8146 -0.38363,7.15586 0.46654,1.45804 1.45779,2.42049 2.39795,2.32827 0.60675,-0.0595 0.86302,-0.28096 1.2556,-1.08493 z"
           style="fill:#000000;fill-opacity:1;stroke-width:0.25253814" />
        <path
           transform="matrix(0.77925633,0,0,0.84578172,123.4761,141.17147)"
           inkscape:connector-curvature="0"
           id="path4554"
           d="m 195.50677,371.15946 c -0.3222,-0.49175 -0.34904,-0.79966 -0.138,-1.58341 0.89592,-3.32716 6.65908,-10.12357 11.05446,-13.03634 2.42203,-1.60505 5.68578,-3.10972 8.06531,-3.7183 2.36501,-0.60487 3.33495,-0.62483 4.1064,-0.0845 0.48046,0.33652 0.56346,0.56895 0.45088,1.26269 -0.0759,0.46763 -0.0766,0.85024 -0.002,0.85024 0.075,0 0.72133,-0.5259 1.43622,-1.16867 4.56324,-4.10291 11.12745,-7.19883 15.39761,-7.26209 2.1838,-0.0323 2.69597,0.27635 2.69597,1.62491 0,1.67021 -3.19155,6.40626 -6.69804,9.93945 -3.72007,3.74839 -8.05508,6.432 -13.08576,8.10083 -3.1965,1.06038 -4.7293,1.29882 -5.71763,0.88944 -0.87108,-0.36081 -1.1222,-0.95969 -0.87478,-2.0862 0.16781,-0.76403 0.15092,-0.78926 -0.29685,-0.44342 -0.26113,0.20168 -0.95854,0.79913 -1.54979,1.32765 -3.67919,3.28887 -9.60277,5.99816 -13.11437,5.99816 -1.12794,0 -1.39087,-0.0928 -1.73007,-0.61046 z m 10.11237,-6.04563 c 1.89864,-0.50567 3.61273,-1.32838 5.08755,-2.44188 1.56218,-1.17947 2.93325,-3.05214 2.81966,-3.85124 -0.0723,-0.50842 -0.21453,-0.55899 -1.50274,-0.53421 -3.64298,0.0701 -9.7658,4.70718 -8.96632,6.79059 0.17889,0.46618 0.91006,0.47666 2.56185,0.0367 z m 16.8292,-4.59409 c 2.47064,-0.8228 4.69167,-2.16978 6.41333,-3.88948 2.26248,-2.25991 2.66683,-3.81206 1.04365,-4.00629 -1.75114,-0.20953 -6.35787,1.60451 -8.84689,3.48374 -2.10248,1.58739 -3.71616,4.19522 -3.02414,4.88725 0.37127,0.37127 2.58932,0.13247 4.41405,-0.47522 z"
           style="fill:#000000;fill-opacity:1;stroke-width:0.25253814" />
        <path
           transform="matrix(0.77925633,0,0,0.84578172,123.4761,141.17147)"
           inkscape:connector-curvature="0"
           id="path4556"
           d="m 286.55922,375.62112 c 0.004,-0.63359 1.16327,-7.37843 1.28462,-7.47526 0.0558,-0.0445 4.52766,-3.2532 9.93751,-7.13041 5.40984,-3.87721 10.55239,-7.74651 11.42787,-8.59845 4.26591,-4.15118 3.98624,-9.74376 -0.5648,-11.29446 -3.34875,-1.14103 -9.80499,0.0974 -15.46782,2.96694 -0.71511,0.36237 -1.34065,0.65886 -1.3901,0.65886 -0.0751,0 0.70414,-5.1525 1.21165,-8.01133 0.12842,-0.72343 0.28875,-0.85682 1.44117,-1.19905 2.27989,-0.67706 7.54969,-1.60801 10.80481,-1.90876 6.72512,-0.62136 12.82474,0.59174 15.85464,3.15317 2.89581,2.44808 3.82445,6.80161 2.35648,11.04734 -1.52438,4.40889 -4.05214,6.84433 -15.84812,15.26928 l -7.0134,5.00912 10.0317,0.066 10.03169,0.066 -0.12627,0.56531 c -0.12743,0.57049 -1.14458,6.91272 -1.14458,7.13678 0,0.0664 -7.38674,0.12079 -16.41498,0.12079 -15.46607,0 -16.41481,-0.0256 -16.41207,-0.44195 z"
           style="fill:#000000;fill-opacity:1;stroke-width:0.25253814" />
        <path
           transform="matrix(0.77925633,0,0,0.84578172,123.4761,141.17147)"
           inkscape:connector-curvature="0"
           id="path4558"
           d="m 346.5001,375.95308 c -6.68458,-1.5166 -11.55602,-6.11444 -13.81202,-13.03629 -1.61375,-4.95129 -2.06135,-12.82064 -0.97895,-17.21115 1.6698,-6.77319 5.7026,-10.90025 11.94455,-12.22376 2.73427,-0.57975 8.54926,-0.36765 10.96166,0.39983 3.17386,1.00973 5.12087,2.19394 7.46147,4.5382 1.83281,1.83567 2.35634,2.56132 3.47256,4.8132 1.55587,3.13882 2.40731,6.2793 2.83945,10.47315 0.58835,5.70983 -0.0805,10.47492 -2.02608,14.43445 -1.7962,3.65551 -4.56661,6.05565 -8.46441,7.33312 -1.75529,0.57528 -2.53377,0.6732 -5.93464,0.74644 -2.71216,0.0584 -4.39015,-0.0236 -5.46359,-0.26719 z m 6.85471,-7.17952 c 3.05217,-1.38657 4.07994,-5.20054 3.62414,-13.44881 -0.46276,-8.37407 -2.02804,-12.82367 -5.05971,-14.38321 -2.17123,-1.11692 -5.69066,-0.76645 -7.06899,0.70394 -1.67535,1.78725 -2.23048,4.08198 -2.23048,9.22011 0,7.47217 1.14005,13.29758 3.11653,15.92486 1.6562,2.20154 5.14097,3.10863 7.61851,1.98311 z"
           style="fill:#000000;fill-opacity:1;stroke-width:0.25253814" />
        <path
           transform="matrix(0.77925633,0,0,0.84578172,123.4761,141.17147)"
           inkscape:connector-curvature="0"
           id="path4560"
           d="m 428.1437,357.19667 c -4.51683,-4.82067 -8.15673,-8.85497 -8.08866,-8.9651 0.0681,-0.11013 1.05676,-0.20024 2.1971,-0.20024 h 2.07334 l 9.7973,5.14684 c 5.38851,2.83076 10.53104,5.38771 11.42784,5.68211 1.75807,0.57713 3.63071,0.6933 4.41446,0.27384 0.73722,-0.39454 0.63364,-1.73542 -0.22561,-2.92054 -1.16689,-1.60946 -4.27676,-4.32854 -6.98205,-6.10469 -1.39241,-0.91418 -2.63962,-1.75562 -2.77157,-1.86985 -0.13195,-0.11424 0.96932,-0.20771 2.44727,-0.20771 h 2.68717 l 1.84589,1.4914 c 2.55275,2.06251 6.23434,5.51038 8.24347,7.72012 2.2197,2.44134 3.37013,4.37486 3.51788,5.91248 0.10386,1.08082 0.044,1.26675 -0.5611,1.74271 -1.57796,1.24123 -5.04404,0.8908 -9.38816,-0.94917 -1.37038,-0.58042 -5.85888,-2.80833 -9.97446,-4.95089 -4.11557,-2.14257 -7.56626,-3.89558 -7.66818,-3.89558 -0.10193,0 1.29022,1.56258 3.09366,3.4724 1.80344,1.90982 4.10052,4.35313 5.10462,5.42957 l 1.82563,1.95717 h -2.40171 -2.40171 z"
           style="fill:#000000;fill-opacity:1;stroke-width:0.25253814" />
        <path
           transform="matrix(0.77925633,0,0,0.84578172,123.4761,141.17147)"
           inkscape:connector-curvature="0"
           id="path4562"
           d="m 474.2982,457.17368 c -1.23668,-0.78116 -1.70909,-2.07471 -1.8263,-5.00078 -0.15004,-3.7454 0.68697,-6.24731 2.91514,-8.71362 l 0.88418,-0.97868 h -1.17835 c -1.4699,0 -2.4714,-0.50356 -3.12694,-1.57225 -1.45516,-2.37227 -1.34472,-7.84157 0.23087,-11.43347 1.85814,-4.23604 6.33843,-8.20948 11.79401,-10.45976 0.9305,-0.38381 5.13704,-2.71605 9.34786,-5.18275 4.21083,-2.4667 7.73374,-4.4077 7.82869,-4.31333 0.095,0.0944 0.22945,1.34567 0.2989,2.78066 l 0.12627,2.60908 -2.58851,1.55144 -2.58852,1.55143 -0.004,1.05966 c -0.006,1.65318 1.04282,20.21073 1.1643,20.59663 0.069,0.21929 1.06887,-0.54542 2.757,-2.10866 l 2.64868,-2.45273 0.002,1.22478 c 0.001,0.67362 0.0703,1.96345 0.15396,2.86627 l 0.15217,1.6415 -2.64073,2.32273 c -2.25082,1.97978 -7.93345,5.8042 -8.21138,5.52627 -0.049,-0.049 -0.42163,-5.92613 -0.82816,-13.06038 -0.40649,-7.13425 -0.76984,-13.27908 -0.80741,-13.65517 l -0.0683,-0.68379 -1.32582,0.76777 c -1.17504,0.68046 -1.32583,0.86224 -1.32583,1.59837 v 0.83059 l -2.01261,0.11651 c -1.66883,0.0966 -2.3329,0.27481 -3.88774,1.04325 -4.23575,2.09342 -6.54561,6.4675 -5.02153,9.50903 0.83863,1.67361 2.59175,1.63039 5.60956,-0.1383 0.85914,-0.50353 1.61421,-0.86336 1.67795,-0.79962 0.0637,0.0637 0.18454,1.24296 0.26847,2.6205 l 0.15258,2.50462 -2.01728,1.17213 c -3.46219,2.01167 -5.16703,4.66798 -4.75583,7.41008 0.5182,3.45558 3.58281,2.91771 7.99092,-1.40248 l 2.19026,-2.14658 0.1507,2.90419 0.1507,2.90419 -1.32136,1.24468 c -2.0364,1.91821 -4.92174,3.96958 -7.09102,5.04144 -2.46058,1.21579 -4.64306,1.47787 -5.86731,0.70455 z"
           style="fill:#000000;fill-opacity:1;stroke-width:0.25253814" />
        <path
           transform="matrix(0.77925633,0,0,0.84578172,123.4761,141.17147)"
           inkscape:connector-curvature="0"
           id="path4564"
           d="m 428.51498,533.11091 c -6.71873,-4.73633 -12.28719,-8.50325 -12.37437,-8.37092 -1.37861,2.09249 -3.19168,4.31258 -3.41389,4.18025 -0.92175,-0.54894 -6.71987,-4.68497 -6.71987,-4.79355 0,-0.0722 0.74838,-1.15095 1.66307,-2.39716 0.91469,-1.24621 1.62496,-2.29381 1.57836,-2.32801 -0.0466,-0.0342 -1.61888,-1.12418 -3.49397,-2.42217 -1.8751,-1.298 -3.44402,-2.38461 -3.4865,-2.4147 -0.10934,-0.0774 5.5305,-7.68683 5.69724,-7.68683 0.0755,0 1.64052,1.0796 3.47779,2.39911 1.83728,1.31951 3.40362,2.39911 3.48076,2.39911 0.0771,0 2.4874,-3.18198 5.35613,-7.07106 2.86873,-3.88909 5.29171,-7.07107 5.3844,-7.07107 0.0927,0 2.02766,1.33529 4.29995,2.96732 l 4.13142,2.96733 6.54437,14.14213 c 3.59941,7.77818 6.60787,14.38761 6.68548,14.68763 0.10787,0.41703 -0.61192,1.57675 -3.05644,4.9245 -1.75865,2.40844 -3.27416,4.40613 -3.36781,4.4393 -0.0936,0.0332 -5.6674,-3.81487 -12.38612,-8.55121 z m 10.0272,-4.98275 c -0.61607,-1.57641 -9.47413,-20.48837 -9.59729,-20.4902 -0.22765,-0.003 -6.64933,8.75944 -6.64933,9.07347 0,0.24681 15.72125,11.57005 16.12035,11.6107 0.11575,0.0118 0.17257,-0.0755 0.12627,-0.19397 z"
           style="fill:#000000;fill-opacity:1;stroke-width:0.25253814" />
        <path
           transform="matrix(0.77925633,0,0,0.84578172,123.4761,141.17147)"
           inkscape:connector-curvature="0"
           id="path4566"
           d="m 365.57007,626.42863 -1.11827,-1.11827 2.9314,-1.57571 c 1.61227,-0.86664 3.63406,-1.97959 4.49287,-2.47322 l 1.56146,-0.89752 -4.59202,-4.60225 c -2.52562,-2.53123 -4.73159,-4.60224 -4.90215,-4.60224 -0.17057,0 -2.08127,1.21628 -4.24599,2.70285 l -3.93587,2.70284 -1.02702,-0.98395 c -0.56486,-0.54117 -1.02702,-1.09008 -1.02702,-1.2198 0,-0.43443 7.26846,-5.10113 12.32142,-7.91095 l 5,-2.78037 5.89286,5.86312 5.89286,5.86312 6.8714,-3.81486 c 3.77927,-2.09817 6.84851,-3.97557 6.82052,-4.172 -0.028,-0.19643 -2.00192,-2.40109 -4.38653,-4.89926 l -4.33566,-4.54211 -4.2599,2.83719 -4.2599,2.8372 -0.99282,-0.95119 c -0.54605,-0.52315 -0.99283,-1.05126 -0.99283,-1.17359 0,-0.74088 16.30927,-10.71538 17.52068,-10.71538 0.15163,0 2.74977,2.57143 5.77364,5.71428 3.02387,3.14286 5.6295,5.71429 5.79028,5.71429 0.16079,0 2.21719,-1.05862 4.56978,-2.35248 l 4.27744,-2.35248 1.03409,0.99073 c 0.56875,0.5449 1.03409,1.10148 1.03409,1.23685 0,0.18145 -44.8886,24.86642 -49.84884,27.41269 -0.62349,0.32006 -0.91993,0.20251 -1.85997,-0.73753 z"
           style="fill:#000000;fill-opacity:1;stroke-width:0.35714287" />
        <path
           transform="matrix(0.77925633,0,0,0.84578172,123.4761,141.17147)"
           inkscape:connector-curvature="0"
           id="path4568"
           d="m 284.31209,615.24793 -2.42346,-1.62577 0.82013,-0.66553 0.82012,-0.66552 -1.07142,-0.22932 c -3.54526,-0.75877 -4.49127,-1.06624 -6.3854,-2.07532 -2.15436,-1.14771 -5.93603,-4.42869 -5.93603,-5.15009 0,-0.22205 0.8371,-0.88701 1.86022,-1.47771 l 1.86023,-1.07399 0.51517,0.77665 c 1.84758,2.78533 4.91126,4.77412 7.89964,5.12805 1.22355,0.14491 2.45679,-0.0191 4.25787,-0.56612 2.41883,-0.7347 3.33263,-1.46384 1.83455,-1.46384 -1.41367,0 -4.62599,-1.49045 -6.20173,-2.87747 -3.74304,-3.29476 -2.89514,-6.83177 2.26453,-9.44638 3.97409,-2.01382 8.75082,-1.9543 13.03095,0.16236 4.53514,2.24278 6.44804,4.97152 5.56088,7.93259 -0.85386,2.84995 -5.34619,6.60278 -10.20374,8.52408 -1.17857,0.46616 -2.27516,0.95578 -2.43686,1.08805 -0.1617,0.13227 0.28851,0.6005 1.00047,1.04051 l 1.29447,0.80002 -2.78619,1.73741 c -1.5324,0.95557 -2.86825,1.74094 -2.96856,1.74526 -0.10031,0.004 -1.27294,-0.72374 -2.60584,-1.61792 z m 9.83324,-12.70113 c 3.06969,-1.56604 3.91164,-3.38904 2.27522,-4.92638 -1.78051,-1.6727 -4.54626,-1.62398 -7.54413,0.13289 -2.88979,1.69353 -3.07213,3.8372 -0.43975,5.16997 1.768,0.89513 3.4311,0.78545 5.70866,-0.37648 z"
           style="fill:#000000;fill-opacity:1;stroke-width:0.35714287" />
      </g>
    </g>
    <path
       style="fill:#000000;fill-opacity:1;stroke-width:0.71428573"
       d="m 327.87883,757.58138 c -1.85986,-0.36244 -1.79109,0.27178 -3.81395,-35.17307 -0.77212,-13.52905 -1.64892,-24.84037 -1.94844,-25.13628 -0.29953,-0.2959 -34.7297,-5.07738 -76.51149,-10.62549 l -75.9669,-10.08749 -4.90249,-3.66875 c -2.69637,-2.01782 -4.8327,-3.73565 -4.74739,-3.8174 0.0853,-0.0818 34.70868,4.47211 76.94082,10.1197 42.23214,5.64758 78.02856,10.2786 79.54759,10.29115 2.28901,0.0189 2.70567,-0.19215 2.43355,-1.23274 -0.18059,-0.69056 -24.52569,-38.86021 -54.10022,-84.82143 -29.57453,-45.96123 -53.92723,-83.96765 -54.11711,-84.45872 -0.18987,-0.49107 -0.5686,-0.89286 -0.84162,-0.89286 -0.27303,0 -12.34968,32.16092 -26.83701,71.46871 -14.92484,40.49484 -26.55833,71.06436 -26.84298,70.53572 -0.2763,-0.51315 -0.72842,-3.72861 -1.00471,-7.14548 l -0.50234,-6.21248 24.73552,-66.93075 c 13.60454,-36.81191 24.63709,-67.44187 24.51679,-68.06657 -0.19571,-1.01622 -6.25639,-3.72098 -40.07437,-17.8844 l -3.44406,-1.44242 1.3012,-2.24081 c 0.71566,-1.23245 1.64372,-2.37733 2.06236,-2.54419 0.41863,-0.16686 10.03911,3.56542 21.37883,8.29393 11.33972,4.72852 21.34596,8.59731 22.23609,8.59731 1.23334,0 12.48299,-11.9479 47.28024,-50.21485 l 45.66183,-50.21485 8.77292,-5.15077 c 4.8251,-2.83293 8.84625,-5.0666 8.93589,-4.96372 0.0896,0.10288 -22.4539,25.09777 -50.09674,55.54419 -27.64283,30.44643 -50.15852,55.67858 -50.03486,56.07143 0.26233,0.83339 210.47065,0.49867 211.3894,-0.3366 0.31377,-0.28525 -21.90385,-25.71907 -49.37249,-56.51959 -27.46863,-30.80052 -49.88626,-56.07218 -49.81694,-56.15924 0.0693,-0.0871 3.48336,1.52008 7.58678,3.57142 l 7.46075,3.72973 46.71738,52.32143 c 31.31399,35.07031 47.17184,52.32142 48.09574,52.32142 0.7581,0 13.00314,-4.90811 27.2112,-10.90692 l 25.83282,-10.90692 2.05734,2.36149 c 1.13154,1.29881 1.84217,2.57666 1.57917,2.83965 -0.263,0.263 -12.11737,5.37978 -26.34305,11.37063 -25.38138,10.68882 -25.86368,10.92976 -25.8004,12.88869 0.0355,1.09793 13.11861,32.44349 29.07365,69.65679 l 29.00915,67.66055 -0.43147,6.11394 c -0.23731,3.36266 -0.65229,6.25041 -0.9222,6.41722 -0.38485,0.23785 -58.15363,-133.93287 -61.61706,-143.10857 -0.4658,-1.23403 -1.0175,-2.2312 -1.22602,-2.21594 -0.87359,0.0639 -106.47685,172.37287 -105.95295,172.87949 0.31561,0.3052 37.05598,-4.07951 81.64527,-9.74379 44.58928,-5.66428 81.67564,-10.30041 82.41412,-10.3025 2.0149,-0.006 -7.84202,6.93095 -10.52287,7.4053 -1.23662,0.21881 -36.64125,4.76485 -78.67697,10.10232 -42.03571,5.33747 -76.71109,9.98664 -77.05639,10.3315 -0.54146,0.54076 1.85121,51.63947 2.73489,58.40708 0.27892,2.1361 0.14988,2.31366 -1.61626,2.22415 -1.05566,-0.0535 -2.61695,-0.23321 -3.46954,-0.39935 z m 0.22922,-75.46541 c 6.7166,-10.37489 103.38858,-167.53276 103.65022,-168.50225 0.32019,-1.18648 -5.13883,-1.24945 -107.42454,-1.23907 -59.26904,0.006 -108.15293,0.25942 -108.63088,0.56312 -0.60568,0.38488 7.48262,13.53025 26.69274,43.38193 15.15896,23.55635 39.92505,62.03509 55.03576,85.5083 15.11072,23.47322 27.84898,42.6746 28.30726,42.66973 0.45828,-0.005 1.52453,-1.07665 2.36944,-2.38176 z"
       id="path863"
       inkscape:connector-curvature="0"
       transform="scale(0.26458333)" />
  </g>
</svg>
