<?xml version="1.0" encoding="UTF-8" standalone="no"?>
<!-- Created with Inkscape (http://www.inkscape.org/) -->

<svg
   xmlns:dc="http://purl.org/dc/elements/1.1/"
   xmlns:cc="http://creativecommons.org/ns#"
   xmlns:rdf="http://www.w3.org/1999/02/22-rdf-syntax-ns#"
   xmlns:svg="http://www.w3.org/2000/svg"
   xmlns="http://www.w3.org/2000/svg"
   xmlns:sodipodi="http://sodipodi.sourceforge.net/DTD/sodipodi-0.dtd"
   xmlns:inkscape="http://www.inkscape.org/namespaces/inkscape"
   width="272.32516"
   height="313.38947"
   id="svg3971"
   version="1.1"
   inkscape:version="0.47pre4 r22446"
   sodipodi:docname="New document 6">
  <title
     id="title4003">Twenty-Sided Dice</title>
  <defs
     id="defs3973" />
  <sodipodi:namedview
     id="base"
     pagecolor="#ffffff"
     bordercolor="#666666"
     borderopacity="1.0"
     inkscape:pageopacity="0.0"
     inkscape:pageshadow="2"
     inkscape:zoom="0.35"
     inkscape:cx="-377.40885"
     inkscape:cy="156.69473"
     inkscape:document-units="px"
     inkscape:current-layer="layer1"
     showgrid="false"
     inkscape:window-width="1280"
     inkscape:window-height="950"
     inkscape:window-x="0"
     inkscape:window-y="25"
     inkscape:window-maximized="1" />
  <metadata
     id="metadata3976">
    <rdf:RDF>
      <cc:Work
         rdf:about="">
        <dc:format>image/svg+xml</dc:format>
        <dc:type
           rdf:resource="http://purl.org/dc/dcmitype/StillImage" />
        <cc:license
           rdf:resource="http://creativecommons.org/licenses/publicdomain/" />
        <dc:title>Twenty-Sided Dice</dc:title>
        <dc:creator>
          <cc:Agent>
            <dc:title>Brian Burger/Wirelizard Design</dc:title>
          </cc:Agent>
        </dc:creator>
        <dc:description>Twenty-sided dice (d20) as used in RPGs and wargaming.</dc:description>
      </cc:Work>
      <cc:License
         rdf:about="http://creativecommons.org/licenses/publicdomain/">
        <cc:permits
           rdf:resource="http://creativecommons.org/ns#Reproduction" />
        <cc:permits
           rdf:resource="http://creativecommons.org/ns#Distribution" />
        <cc:permits
           rdf:resource="http://creativecommons.org/ns#DerivativeWorks" />
      </cc:License>
    </rdf:RDF>
  </metadata>
  <g
     inkscape:label="Layer 1"
     inkscape:groupmode="layer"
     id="layer1"
     transform="translate(-246.69456,-375.66745)">
    <path
       style="fill:#d00000;fill-opacity:1;stroke:none"
       d="m 379.93009,375.66819 c -0.57042,0.0194 -1.22613,0.22811 -1.58536,0.73174 l -80.67309,96.52739 c -1.34246,1.68064 -1.43314,2.05568 0.3659,2.07325 l 161.59017,-0.42695 c 2.22078,-0.18146 2.23054,-0.0702 0.79265,-1.95128 l -79.2707,-96.52721 c -0.16389,-0.25521 -0.64874,-0.44097 -1.21957,-0.42694 z m 15.48842,8.59792 72.74609,88.47818 c 0.97444,1.1817 1.21194,1.24884 2.92697,0.42695 l 38.35462,-17.56151 c 2.51233,-1.13388 2.1642,-1.3661 0.48784,-2.50017 L 395.41851,384.26611 z m -33.96442,3.23171 c -0.034,-0.0722 -0.6255,0.36995 -1.95133,1.28062 l -105.61284,69.5143 33.04973,15.00045 c 1.72413,0.56842 2.23917,0.59885 3.35363,-0.79279 l 69.6974,-83.23414 c 0.98238,-1.13662 1.49615,-1.69624 1.46341,-1.76844 z m 33.41562,35.24496 c 4.66845,2e-4 8.40589,1.60961 11.15883,4.81732 2.75167,3.19172 4.30469,7.75185 4.69539,13.65895 0.3892,5.8913 -0.59833,10.45126 -2.92704,13.65895 -2.32984,3.19171 -5.81962,4.75624 -10.48806,4.75624 -4.68462,0 -8.40725,-1.56453 -11.15899,-4.75624 -2.75269,-3.20769 -4.30574,-7.76765 -4.69516,-13.65895 -0.3907,-5.9071 0.59706,-10.46723 2.92689,-13.65895 2.32872,-3.20771 5.80344,-4.81712 10.48814,-4.81732 z m -30.67179,0.36587 c 4.2558,2e-4 7.44666,0.93134 9.51251,2.80497 2.0817,1.87381 2.82561,4.45458 2.31708,7.80511 -0.29394,1.93743 -1.06122,3.74393 -2.31708,5.42709 -1.25346,1.66736 -3.683,3.95778 -7.31726,6.76841 l -8.59774,6.64662 15.61021,0 -0.97563,6.70753 -25.85443,0 1.03658,-6.70753 14.6956,-11.46374 c 1.31806,-1.04803 2.34108,-2.04846 3.04885,-3.04888 0.70753,-1.00042 1.11652,-2.09099 1.28042,-3.17084 0.25311,-1.66735 -0.0642,-3.00827 -1.0364,-4.0245 -0.95756,-1.01622 -2.41067,-1.52434 -4.26858,-1.52453 -1.42924,1.9e-4 -3.02419,0.35649 -4.81727,0.97563 -1.79071,0.60354 -3.73333,1.47634 -5.85386,2.68302 l 1.1587,-7.80512 c 2.16791,-0.68277 4.27197,-1.17507 6.34171,-1.52434 2.07202,-0.36527 4.09936,-0.5487 6.03659,-0.5489 z m 31.09863,5.91492 c -1.9691,0 -3.30365,0.91787 -4.02456,2.74389 -0.72196,1.8104 -0.9647,4.94434 -0.67069,9.39052 0.29703,4.49399 0.92682,7.6096 1.89015,9.45161 0.96343,1.84201 2.42144,2.80495 4.39046,2.80495 1.95323,0 3.30466,-0.96294 4.02448,-2.80495 0.71981,-1.84201 0.96786,-4.95762 0.67083,-9.45161 -0.29409,-4.44618 -0.92926,-7.58012 -1.89038,-9.39052 -0.94639,-1.82602 -2.42138,-2.74389 -4.39029,-2.74389 z m -87.68571,4.93909 c 0.84542,0 1.43914,0.2117 1.70731,0.67083 0.5305,0.91321 -0.14034,2.69374 -1.95117,5.4269 -1.81654,2.74291 -3.90266,5.07488 -6.28068,6.95143 -2.38434,1.87147 -5.02166,3.2797 -7.86613,4.20754 -1.84482,0.60178 -3.11772,0.75963 -3.84142,0.42674 -0.73034,-0.33796 -0.89867,-1.18188 -0.48785,-2.4391 -1.37424,1.45332 -2.80959,2.71404 -4.3295,3.71972 -1.51968,1.00551 -3.06802,1.78641 -4.69515,2.31714 -2.42177,0.78989 -3.88017,0.73232 -4.26842,-0.18341 -0.38855,-0.91514 0.30804,-2.67091 2.01212,-5.24406 1.69164,-2.55423 3.58331,-4.72092 5.73198,-6.46362 2.13573,-1.73858 4.45613,-2.98661 6.89049,-3.7806 1.62713,-0.53074 2.76246,-0.67044 3.41474,-0.36586 0.6584,0.29504 0.81134,1.02364 0.48777,2.13412 1.48686,-1.60806 3.05854,-2.96263 4.75634,-4.08539 1.69117,-1.12804 3.45992,-2.02016 5.3049,-2.62214 1.42227,-0.46382 2.5694,-0.6683 3.41467,-0.67065 z m 162.74895,1.46345 c 1.45159,1.21467 2.79287,2.47091 4.02448,3.65864 1.24088,1.18774 2.36754,2.33352 3.35364,3.47581 2.16633,2.50935 3.31821,4.46062 3.41481,5.85383 0.10532,1.40259 -0.83845,2.12085 -2.80508,2.13412 -1.1369,0 -2.46621,-0.33132 -3.96337,-0.91457 -1.48805,-0.58323 -3.85204,-1.77839 -7.13442,-3.65863 l -7.80513,-4.45147 7.98818,9.20769 -3.96362,0.0605 -13.17117,-15.24436 3.96353,-0.0605 13.35402,7.62227 c 1.20536,0.67924 2.23971,1.20062 3.10994,1.52434 0.87015,0.32392 1.62238,0.49211 2.25604,0.48782 0.97856,0 1.44091,-0.36782 1.46357,-1.03652 0.031,-0.65954 -0.39577,-1.52648 -1.34153,-2.62212 -0.7275,-0.84257 -1.6986,-1.80552 -2.92695,-2.80497 -1.21909,-0.99944 -2.69588,-2.03323 -4.39045,-3.17082 l 4.57351,-0.0605 z m -168.17574,4.08558 c -0.4525,0.0429 -1.0636,0.13658 -1.7685,0.36586 -1.42204,0.46383 -2.68161,1.11067 -3.78064,1.89022 -1.11162,0.78381 -2.01498,1.67457 -2.68295,2.68301 -0.67418,1.01796 -0.82079,1.71223 -0.42675,2.01234 0.39377,0.30011 1.33446,0.2158 2.74389,-0.24392 1.40936,-0.45972 2.66267,-1.09701 3.78055,-1.89039 1.10528,-0.78889 2.00888,-1.7259 2.68303,-2.74388 0.66799,-1.00843 0.81421,-1.65646 0.42692,-1.95128 -0.20018,-0.14441 -0.52328,-0.16392 -0.97555,-0.12101 z m -13.2322,4.63429 c -0.36241,0.0274 -0.83235,0.11897 -1.40246,0.3048 -1.14031,0.37209 -2.1409,0.92723 -3.04877,1.58539 -0.92102,0.66246 -1.69458,1.40806 -2.25636,2.25628 -0.57423,0.86714 -0.72974,1.43672 -0.42677,1.70736 0.30907,0.26128 1.06758,0.18537 2.19528,-0.18342 1.14029,-0.37192 2.12782,-0.86207 3.04884,-1.52453 0.92705,-0.67184 1.68182,-1.44999 2.25597,-2.31714 0.56186,-0.84823 0.73614,-1.38502 0.42699,-1.6463 -0.15414,-0.13069 -0.43048,-0.21055 -0.79272,-0.18343 z m 226.10426,15.61021 c -0.32817,0.0235 -0.84598,0.21231 -1.64631,0.5487 l -39.39143,17.98845 c -1.39865,0.63494 -1.3106,1.49059 -0.79271,2.56106 l 45.79406,116.16191 -3.29269,-135.30883 c -0.1015,-1.47966 -0.12292,-1.99051 -0.67092,-1.95129 z m -264.15417,3.59758 -4.20738,131.65038 38.78161,-113.90585 c 0.57289,-1.68219 0.55941,-1.76726 -0.60982,-2.31714 l -33.96441,-15.42739 z m 210.85994,17.07368 -165.24893,0.42695 c -2.3616,-0.0351 -2.26382,-0.0331 -1.0975,1.8902 l 83.90491,141.52872 c 1.41696,2.1597 1.26544,2.09177 2.74399,-0.121 l 80.61228,-141.77265 c 0.70556,-1.12609 1.21085,-1.91401 -0.91475,-1.95129 z m 6.58556,3.71973 c -0.15225,0.0645 -0.31859,0.63826 -0.79265,1.52435 l -81.16103,142.80914 c -0.88551,1.50756 -1.09609,2.04787 1.03665,1.70737 l 128.84525,-17.74433 c 2.04343,-0.46654 1.98138,-1.1973 1.28066,-3.2319 L 468.95716,485.7326 c -0.3215,-1.18288 -0.45694,-1.64942 -0.60972,-1.58542 z m -178.17612,1.34151 c -0.15801,0.11311 -0.30011,0.71495 -0.60981,1.5854 l -41.15962,121.16207 c -0.70087,2.57414 -0.78013,3.54118 1.8293,4.02453 l 123.11343,17.8054 c 2.32801,0.34987 2.03027,-0.82265 1.4634,-1.95126 L 291.02499,486.76912 c -0.52732,-1.06776 -0.69637,-1.394 -0.85367,-1.28043 z m 224.03113,1.5854 0.24391,5.06102 -4.14635,2.68301 0.97555,18.35432 4.14644,-4.0856 0.30503,5.00016 -4.20754,4.02452 -4.45131,2.86603 -1.21957,-23.35446 -1.95117,1.21954 0.0602,1.46346 c -0.91317,-0.12686 -1.80314,-0.0703 -2.68295,0.12101 -0.88743,0.21015 -1.72397,0.56568 -2.56108,1.09759 -1.24356,0.79027 -2.18131,1.7144 -2.80492,2.80497 -0.63176,1.09583 -0.91849,2.28104 -0.85375,3.53668 0.0658,1.29391 0.44182,2.03051 1.15855,2.25628 0.70919,0.24352 1.7242,-0.0194 3.04884,-0.85369 l 1.89048,-1.21956 0.24384,4.75626 -1.95125,1.21953 c -1.17851,0.74872 -2.07442,1.62348 -2.62209,2.56106 -0.54699,0.95007 -0.79243,1.99107 -0.73179,3.17083 0.0562,1.09075 0.3842,1.77234 0.97555,2.01216 0.59166,0.23979 1.41513,0.0409 2.4391,-0.60978 0.75595,-0.4802 1.49788,-1.13311 2.25636,-1.89021 0.75843,-0.75709 1.51881,-1.61663 2.25606,-2.62213 l 0.24385,5.36603 c -0.9055,0.99476 -1.78294,1.84063 -2.68297,2.62212 -0.89994,0.7813 -1.80504,1.45447 -2.68303,2.01216 -2.3651,1.50287 -4.13281,2.05939 -5.366,1.58542 -1.24055,-0.45601 -1.94778,-1.89393 -2.07322,-4.3293 -0.0854,-1.66172 0.10353,-3.21259 0.60975,-4.6343 0.50655,-1.4092 1.30315,-2.71326 2.37816,-3.84167 -1.25284,0.28527 -2.22965,0.0352 -2.9268,-0.79261 -0.70485,-0.80978 -1.06138,-2.1345 -1.1587,-4.0245 -0.14439,-2.81589 0.40147,-5.39491 1.70734,-7.74424 1.30656,-2.33666 3.32621,-4.35311 5.9758,-6.03668 0.93466,-0.59397 1.84983,-1.10538 2.80493,-1.46345 0.19534,-0.076 0.41248,-0.11706 0.60981,-0.18342 l 0.0602,-0.0605 12.68333,-8.049 z m -259.82475,9.87834 c 0.6217,-0.0409 1.27353,0.16196 2.0122,0.60977 1.6284,0.98637 2.81966,2.836 3.53663,5.54885 0.0451,0.17173 0.0817,0.3725 0.12099,0.5489 l 0.24385,-3.23191 8.78082,5.30515 -0.36589,4.45125 -2.86579,-1.70737 -1.28066,15.97609 2.98799,0.60977 -0.30494,4.3295 -3.04901,-0.54889 -3.04886,-1.8902 1.64655,-20.36647 -2.50021,-1.46346 c 0.37493,2.33586 0.49744,5.02611 0.24393,8.1099 -0.33681,4.09768 -1.14507,6.9526 -2.37801,8.65879 -1.23938,1.71401 -2.75483,2.01627 -4.57343,0.91477 -0.57615,-0.34909 -1.11805,-0.77466 -1.64624,-1.28062 -0.52827,-0.50597 -1.08301,-1.09194 -1.58553,-1.76825 l 0.36598,-4.57341 c 0.49047,0.82051 1.01247,1.49509 1.4634,2.01235 0.44989,0.52841 0.89392,0.94832 1.34153,1.21956 0.96238,0.58284 1.75344,0.49385 2.37808,-0.24391 0.62368,-0.72666 1.01984,-2.11871 1.28058,-4.14646 -0.41408,0.31882 -0.828,0.48294 -1.28058,0.48781 -0.45377,0.0195 -0.95423,-0.1191 -1.46349,-0.42694 -1.28137,-0.77604 -2.20461,-2.1269 -2.86585,-4.08539 -0.6672,-1.96202 -0.92951,-4.18238 -0.73179,-6.58557 0.21841,-2.65785 0.8188,-4.53634 1.8293,-5.60991 0.50488,-0.53134 1.08554,-0.81174 1.7074,-0.8537 z m 0.91444,4.45127 c -0.22727,0.0506 -0.44006,0.21267 -0.60957,0.48781 -0.34553,0.55805 -0.55148,1.5372 -0.67076,2.98798 -0.1191,1.45078 -0.1033,2.64399 0.12101,3.5367 0.21967,0.90032 0.6488,1.54464 1.21963,1.8902 0.56497,0.34246 0.99584,0.19319 1.34144,-0.36585 0.33901,-0.55027 0.55149,-1.53704 0.67067,-2.98781 0.1191,-1.45077 0.0976,-2.63637 -0.12101,-3.53669 -0.22617,-0.89271 -0.59341,-1.48707 -1.15846,-1.82931 -0.28544,-0.17369 -0.56527,-0.23417 -0.79287,-0.18344 z m 96.83226,9.02464 8.65885,0 0,6.46361 15.79322,0 0,7.86621 -14.26871,21.22013 -10.18336,0 0,-22.4397 -5.06104,0 0,-6.64664 5.06104,0 0,-6.46361 z m 30.00096,0 24.81795,0 0,6.34167 -8.04904,0 0,22.9886 8.29279,-1.70738 0,6.2197 -8.29279,1.70736 -8.71995,0 0,-29.20828 -8.04896,0 0,-6.34167 z m -21.34211,13.11025 0,14.93939 10.06132,-14.93939 -10.06132,0 z m -61.28224,26.89096 5.73189,7.80511 -2.68303,1.76845 c 0.4139,0.0937 0.79707,0.16391 1.21954,0.30478 3.36735,1.13585 6.46558,3.64714 9.26859,7.43925 3.08943,4.18002 4.33538,8.12962 3.71954,11.95158 -0.63811,3.81553 -3.11541,7.13271 -7.3782,9.93944 -4.36905,2.87656 -8.76575,3.8362 -13.23213,2.80495 -4.48879,-1.03788 -8.4402,-3.92947 -11.8906,-8.59791 -1.09346,-1.47947 -2.08606,-2.93357 -2.92689,-4.45126 -0.84098,-1.5177 -1.56452,-3.08186 -2.19518,-4.69538 l 4.87823,-3.23169 c 0.47722,1.7144 1.06334,3.26449 1.70732,4.63428 0.63193,1.3776 1.3458,2.63149 2.19517,3.78061 1.82606,2.47052 3.82289,4.00168 5.97575,4.63427 2.14098,0.64041 4.37871,0.37797 6.76838,-0.85366 -1.27915,-0.56706 -2.43572,-1.33685 -3.53663,-2.25627 -1.11272,-0.91164 -2.14366,-2.04651 -3.1097,-3.35368 -2.43135,-3.28946 -3.63284,-6.4597 -3.53678,-9.51247 0.0856,-3.06721 1.40111,-5.44738 3.96353,-7.13447 0.70856,-0.46635 1.45263,-0.81816 2.1951,-1.09759 l -3.96338,-5.36601 6.82948,-4.51233 z m 155.61445,11.28093 6.64642,5.12211 10.61011,24.87879 -5.30498,7.866 -19.14691,-14.63459 -2.6221,3.90255 -5.67087,-4.32931 2.68304,-3.96363 -5.54898,-4.20735 4.57336,-6.70751 5.48787,4.26843 8.29304,-12.19549 z m -151.04125,6.15861 c -1.03302,0.0683 -2.13258,0.5167 -3.29278,1.28063 -1.54677,1.01836 -2.396,2.11579 -2.62194,3.35367 -0.24861,1.23145 0.13655,2.62036 1.21948,4.08558 1.07231,1.45078 2.27682,2.28065 3.59765,2.49998 1.29833,0.21288 2.72162,-0.20098 4.26839,-1.21956 1.54702,-1.01836 2.4346,-2.1224 2.68305,-3.35365 0.22617,-1.23789 -0.14829,-2.6348 -1.21948,-4.08558 -1.083,-1.46502 -2.29931,-2.28709 -3.59764,-2.5 -0.3304,-0.0547 -0.69232,-0.0839 -1.03673,-0.0604 z m 153.66311,2.62215 -5.24396,7.74402 12.68326,9.75641 -7.4393,-17.50043 z m -199.57906,48.84283 120.79628,68.53866 c 1.56406,0.94791 1.92955,0.60252 1.70734,-1.0366 l -2.56108,-48.05017 c -0.0697,-1.55068 -0.27982,-2.18211 -1.89014,-2.4391 l -118.0524,-17.01279 z m 249.76366,0.121 -122.62575,16.95175 c -1.61801,0.23844 -1.3259,1.03281 -1.34152,2.19518 l 2.6221,48.90401 c 0.13476,1.48384 0.0914,2.01584 1.89017,1.09758 l 119.455,-69.14852 z m -76.77065,21.09822 8.96372,9.93935 7.0123,-4.14643 1.95126,2.19516 -18.41523,10.91492 -2.98773,1.76837 -18.41523,10.91503 -1.95132,-2.13429 7.01238,-4.14644 -7.13436,-7.8051 -6.58547,4.81722 -1.95134,-2.13419 6.58572,-4.75624 7.50008,-4.4514 9.02466,9.9394 3.96354,-2.37818 2.98782,-1.76836 3.96362,-2.37807 -7.07341,-7.8051 -6.64665,4.81722 -1.89007,-2.1343 6.58547,-4.81711 7.50024,-4.45146 z m -80.61231,1.46347 c 2.3727,0.10779 4.51511,0.9278 6.52469,2.43904 2.23116,1.67797 3.17588,3.48766 2.80508,5.488 -0.3712,2.00045 -2.0271,4.00046 -4.93931,5.97588 -1.73215,1.17494 -3.52198,1.97755 -5.30498,2.50001 l 2.07321,1.58545 -4.6954,3.17079 -4.14635,-3.10982 1.52443,-1.03661 c -2.59698,-0.17033 -4.94267,-1.01976 -7.07333,-2.62206 -0.80232,-0.6033 -1.53014,-1.18988 -2.13432,-1.82933 -0.61204,-0.63396 -1.1331,-1.31339 -1.58538,-2.01225 l 3.35388,-2.25613 c 0.35511,0.76466 0.75556,1.40883 1.21948,2.01225 0.47184,0.59791 1.01977,1.17517 1.64631,1.64642 1.31417,0.98833 2.76632,1.49406 4.2684,1.52437 1.51009,0.0247 3.04465,-0.46856 4.69539,-1.40243 -0.92419,-0.11621 -1.77064,-0.30451 -2.56116,-0.60981 -0.79057,-0.3053 -1.50754,-0.70234 -2.19501,-1.21952 -1.74997,-1.31586 -2.6206,-2.78937 -2.62209,-4.32946 0.0191,-1.53964 0.91928,-2.88918 2.68287,-4.08546 1.94959,-1.32237 4.09866,-1.93005 6.46359,-1.82933 z m 1.03673,3.65867 c -0.92364,0.0685 -1.87541,0.4452 -2.92689,1.15855 -1.05978,0.71884 -1.68514,1.41803 -1.82929,2.07321 -0.13663,0.64979 0.20375,1.24894 0.97556,1.82934 0.77179,0.58039 1.58441,0.85639 2.50005,0.79272 0.92348,-0.0696 1.92827,-0.50067 2.9879,-1.21952 1.05164,-0.71334 1.62413,-1.35706 1.76835,-2.01224 0.1444,-0.65529 -0.14241,-1.30991 -0.9146,-1.89042 -0.77197,-0.58028 -1.63744,-0.80081 -2.56108,-0.73164 z"
       id="path3922" />
  </g>
</svg>
