<svg height='300px' width='300px'  fill="#000000" xmlns="http://www.w3.org/2000/svg" xmlns:xlink="http://www.w3.org/1999/xlink" version="1.1" x="0px" y="0px" viewBox="0 0 100 100" enable-background="new 0 0 100 100" xml:space="preserve"><g><g><g><g><g><g><path d="M72.534,50.666c1.144,1.744,1.806,3.853,1.806,6.098c0,6.221-5.057,11.3-11.277,11.3        c-2.428,0-4.696-0.784-6.542-2.089c-2.87-2.066-4.756-5.416-4.756-9.211c0-5.557,4.054-10.193,9.371-11.095        c0.623-0.122,1.264-0.182,1.927-0.182C67.035,45.487,70.527,47.554,72.534,50.666z M63.604,55v-3.674        c0.743,0.241,1.204,0.723,1.405,1.464c0.159,0.623,0.542,0.925,1.123,0.925c0.302,0,0.562-0.103,0.764-0.322        c0.22-0.199,0.32-0.461,0.32-0.762c0-0.261-0.06-0.543-0.2-0.863c-0.161-0.322-0.362-0.622-0.623-0.921        c-0.341-0.404-0.723-0.704-1.164-0.885c-0.461-0.202-1.003-0.321-1.625-0.401v-0.943c0-0.481-0.201-0.723-0.562-0.723        c-0.061,0-0.121,0-0.181,0.02c-0.261,0.083-0.381,0.302-0.381,0.724v0.04v0.883c-1.224,0.122-2.147,0.482-2.79,1.144        c-0.642,0.644-0.963,1.466-0.963,2.489c0,0.761,0.161,1.403,0.482,1.885c0.341,0.502,0.762,0.883,1.304,1.145        c0.522,0.282,1.184,0.521,1.967,0.741v2.85v1.246c-0.381-0.122-0.663-0.263-0.883-0.442c-0.019-0.021-0.04-0.021-0.06-0.04        c-0.241-0.22-0.422-0.443-0.542-0.701c-0.121-0.263-0.262-0.623-0.402-1.105c-0.081-0.22-0.201-0.399-0.381-0.521        c-0.181-0.121-0.421-0.18-0.682-0.18c-0.321,0-0.602,0.102-0.823,0.32c-0.221,0.24-0.321,0.483-0.321,0.785        c0,0.379,0.08,0.76,0.241,1.164c0.161,0.399,0.421,0.779,0.762,1.141c0.201,0.223,0.442,0.423,0.722,0.584        c0.161,0.121,0.362,0.238,0.562,0.341c0.521,0.239,1.124,0.399,1.806,0.481v2.387c0,0.263,0.04,0.463,0.12,0.604        c0.1,0.118,0.241,0.181,0.462,0.181c0.22,0,0.361-0.082,0.441-0.243c0.06-0.161,0.1-0.399,0.1-0.741v-2.206        c0.842-0.062,1.564-0.281,2.167-0.662c0.622-0.36,1.083-0.843,1.404-1.427c0.302-0.579,0.461-1.224,0.461-1.885        c0-0.541-0.1-1.023-0.3-1.485c-0.141-0.361-0.361-0.683-0.663-0.945c-0.04-0.078-0.1-0.137-0.18-0.199        c-0.341-0.322-0.722-0.561-1.144-0.722C64.908,55.381,64.326,55.2,63.604,55z"></path><path d="M74.901,39.989c0.362,2.567,0.181,4.755-0.401,6.663c-2.81-3.192-6.883-5.178-11.438-5.178        c-8.448,0-15.311,6.863-15.311,15.289c0,5.036,2.448,9.531,6.221,12.303c-2.107,2.729-3.672,5.319-3.773,6.961        c-0.121-1.666-1.665-4.111-3.712-6.659c-2.027-2.571-4.555-5.22-6.642-7.267c-2.588-2.629-6.061-4.816-8.93-7.524        c-3.432-3.293-6-7.346-5.077-13.806c0.642-4.255,2.568-7.304,5.077-9.252c3.291-2.566,13.666-5.698,19.264,4.315l0.1,0.602        c1.687-4.595,4.014-6.822,8.067-7.966c5.378-1.384,11.679,0.501,14.809,6.181C73.978,36.156,74.581,37.942,74.901,39.989z"></path><path d="M63.604,61.139v-2.246v-1.607c0.521,0.181,0.944,0.365,1.244,0.604c0.06,0.02,0.101,0.06,0.14,0.103        c0.322,0.277,0.482,0.682,0.482,1.184c0,0.481-0.161,0.9-0.502,1.262C64.647,60.797,64.186,61.04,63.604,61.139z"></path><path fill="#000000" d="M62.48,48.638c0-0.422,0.12-0.641,0.381-0.724c-0.041,0.282-0.161,0.543-0.381,0.764V48.638z"></path><path d="M61.296,54.017c-0.261-0.243-0.381-0.584-0.381-1.043c0-0.503,0.14-0.866,0.401-1.105        c0.281-0.24,0.662-0.441,1.164-0.584v3.375C61.958,54.479,61.557,54.255,61.296,54.017z"></path></g></g></g></g></g></g></svg>
