<?xml version="1.0" standalone="no"?>
<!DOCTYPE svg PUBLIC "-//W3C//DTD SVG 20010904//EN"
 "http://www.w3.org/TR/2001/REC-SVG-20010904/DTD/svg10.dtd">
<svg version="1.0" xmlns="http://www.w3.org/2000/svg"
 width="256.000000pt" height="256.000000pt" viewBox="0 0 256.000000 256.000000"
 preserveAspectRatio="xMidYMid meet">
<metadata>
Created by potrace 1.11, written by Peter Selinger 2001-2013
</metadata>
<g transform="translate(0.000000,256.000000) scale(0.100000,-0.100000)"
fill="#000000" stroke="none">
<path d="M1063 2373 c-99 -104 -236 -246 -304 -317 -68 -70 -161 -167 -207
-215 l-83 -86 391 -3 c215 -1 564 -1 776 0 l384 3 -52 55 c-53 58 -118 127
-338 359 -74 79 -157 166 -183 195 -112 118 -190 196 -196 196 -4 0 -89 -84
-188 -187z"/>
<path d="M1410 2476 c14 -14 273 -286 300 -316 18 -19 101 -106 184 -194 83
-87 160 -170 172 -183 15 -17 28 -23 40 -19 66 21 369 146 371 153 2 4 -39 30
-90 56 -130 67 -310 161 -462 241 -130 68 -277 146 -410 216 -68 35 -114 56
-105 46z"/>
<path d="M895 2359 c-93 -55 -181 -105 -195 -112 -14 -7 -101 -58 -195 -112
-93 -54 -186 -107 -205 -118 -139 -77 -230 -130 -228 -133 5 -4 314 -124 321
-124 8 0 10 3 297 300 356 369 385 400 380 399 -3 -1 -81 -46 -175 -100z"/>
<path d="M2370 1815 c-200 -79 -240 -97 -240 -107 0 -17 161 -363 171 -366 5
-2 7 -7 4 -12 -3 -4 13 -48 36 -96 22 -49 46 -102 54 -119 44 -99 73 -162 116
-255 l49 -105 -5 150 c-2 83 -7 263 -11 400 -3 138 -8 293 -9 345 -2 52 -4
123 -4 158 -1 43 -5 62 -13 61 -7 0 -74 -24 -148 -54z"/>
<path d="M39 1813 c-1 -16 -2 -62 -4 -103 -1 -41 -5 -154 -9 -250 -4 -96 -9
-231 -12 -300 -2 -69 -6 -183 -9 -254 -3 -71 -3 -127 -1 -125 5 6 354 901 358
918 2 11 -43 33 -152 78 -85 34 -158 62 -162 63 -5 0 -8 -12 -9 -27z"/>
<path d="M823 1700 l-371 -5 398 -585 c220 -322 403 -586 408 -588 5 -1 100
138 212 310 222 340 497 760 538 821 14 20 22 41 18 44 -8 9 -674 10 -1203 3z"/>
<path d="M1888 1373 c-108 -164 -244 -372 -303 -463 -226 -345 -275 -421 -275
-426 0 -2 21 -2 48 1 26 3 65 8 87 10 63 7 138 16 165 20 14 2 54 7 90 10 36
4 74 9 85 11 11 2 47 6 80 9 33 3 71 8 85 10 14 2 50 6 80 10 30 3 71 8 90 10
50 7 108 14 161 20 112 12 260 33 265 38 3 3 -13 47 -36 99 -136 301 -423 933
-425 936 -1 2 -90 -131 -197 -295z"/>
<path d="M211 1159 c-107 -275 -196 -506 -197 -514 -2 -14 14 -18 116 -30 25
-3 61 -7 80 -10 19 -3 53 -7 75 -10 38 -4 252 -31 325 -40 100 -12 209 -26
240 -30 176 -24 346 -42 353 -38 4 2 -17 39 -46 81 -29 42 -207 303 -396 579
-188 277 -345 505 -349 507 -4 2 -95 -221 -201 -495z"/>
<path d="M679 290 c310 -154 568 -280 573 -280 6 0 7 29 4 73 -3 39 -8 117
-11 172 -8 137 -10 164 -16 169 -2 2 -24 7 -49 11 -95 14 -106 15 -150 20 -25
2 -54 6 -65 9 -11 2 -51 7 -90 11 -38 4 -81 8 -95 10 -14 2 -47 6 -75 9 -27 4
-66 9 -85 11 -19 2 -55 7 -80 10 -25 3 -61 8 -80 10 -19 3 -91 12 -160 20 -69
8 -138 18 -155 20 -16 3 224 -121 534 -275z"/>
<path d="M2370 559 c-30 -4 -80 -11 -110 -14 -30 -4 -66 -8 -80 -10 -14 -2
-54 -7 -90 -10 -36 -4 -72 -9 -80 -10 -8 -2 -44 -6 -80 -10 -36 -3 -76 -8 -90
-10 -14 -2 -50 -7 -80 -10 -30 -3 -66 -8 -80 -10 -14 -2 -52 -6 -85 -10 -33
-3 -69 -8 -80 -9 -11 -2 -54 -7 -95 -12 -41 -4 -78 -9 -82 -10 -5 -1 -17 -2
-29 -3 -19 -1 -20 -5 -15 -83 3 -46 8 -134 12 -196 8 -142 9 -148 25 -144 18
4 1091 542 1104 553 6 6 6 9 0 8 -6 -1 -35 -5 -65 -10z"/>
</g>
</svg>
