<svg id="icon" xmlns="http://www.w3.org/2000/svg" viewBox="-7 0 512 512" width="512" height="512" fill="#ffff00" fill-opacity="0.75">
  <g transform="translate(0,0)" style="touch-action: none;">
    <path d="m0 302.332031c0 21.085938 17.09375 38.183594 38.179688 38.183594h17.535156v-76.363281h-17.535156c-21.085938 0-38.179688 17.09375-38.179688 38.179687zm0 0"/>
    <path d="m459.914062 264.152344h-17.527343v76.363281h17.539062c21.085938 0 38.175781-17.09375 38.175781-38.175781 0-21.089844-17.097656-38.1875-38.1875-38.1875zm0 0"/>
    <path d="m291.621094 207.734375-42.570313-60.558594-42.570312 60.558594c-2.867188 4.078125-7.523438 6.496094-12.511719 6.496094h-107.664062v126.285156c0 60.726563 17.382812 111.195313 73.984374 142.761719l18.476563 10.308594c44.007813 24.550781 96.5625 24.550781 140.570313 0 7.113281-3.96875 15.140624-8.132813 23.507812-13.355469 54.351562-33.941407 68.90625-81.34375 68.976562-139.714844.023438-20.421875 0-57.277344 0-126.285156h-107.6875c-4.984374 0-9.644531-2.417969-12.511718-6.496094zm61.71875 163.371094c-1.304688 6.699219-6.992188 11.835937-13.96875 12.304687v43.5625c0 29.363282-23.890625 53.253906-53.253906 53.253906h-20.855469c-29.363281 0-53.253907-23.890624-53.253907-53.253906v-43.519531h-52.238281c-7.441406 0-13.632812-5.3125-15.007812-12.347656-.183594-.949219-.285157-1.9375-.285157-2.949219 0-8.484375 6.878907-15.292969 15.292969-15.292969h178.5625c9.519531 0 16.863281 8.652344 15.007813 18.242188zm-207.40625-117.609375c14.242187 11.675781 10.03125 8.222656 18.484375 15.152344 7.625-6.25 5.027343-4.117188 18.488281-15.152344 6.535156-5.351563 16.171875-4.394532 21.523438 2.132812 5.378906 6.574219 4.371093 16.203125-2.140626 21.523438l-13.746093 11.269531 13.746093 11.253906c6.535157 5.355469 7.496094 14.988281 2.140626 21.527344-5.359376 6.53125-14.960938 7.503906-21.523438 2.140625l-18.488281-15.152344-18.484375 15.152344c-6.539063 5.34375-16.148438 4.414062-21.523438-2.140625-5.355468-6.539063-4.398437-16.171875 2.140625-21.527344l13.742188-11.253906-13.742188-11.269531c-7.109375-5.808594-7.515625-16.597656-.90625-22.863282 5.253907-4.984374 13.863281-6.054687 20.289063-.792968zm225.617187 23.65625-13.742187 11.269531 13.742187 11.253906c6.539063 5.355469 7.496094 14.988281 2.144531 21.527344-5.359374 6.53125-14.960937 7.503906-21.527343 2.140625l-18.484375-15.152344-18.488282 15.152344c-6.5625 5.363281-16.164062 4.390625-21.523437-2.140625-5.355469-6.539063-4.394531-16.171875 2.140625-21.527344l13.746094-11.253906-13.746094-11.269531c-6.515625-5.324219-7.515625-14.953125-2.140625-21.523438 5.351563-6.527344 14.988281-7.484375 21.523437-2.132812 14.242188 11.675781 10.035157 8.222656 18.488282 15.152344 7.625-6.25 5.023437-4.117188 18.484375-15.152344 6.535156-5.351563 16.171875-4.394532 21.527343 2.132812 5.378907 6.574219 4.371094 16.203125-2.144531 21.523438zm0 0"/>
    <path d="m435.679688 183.640625c8.445312 0 15.292968-6.847656 15.292968-15.296875v-55.160156c0-62.414063-50.769531-113.183594-113.171875-113.183594h-177.5c-62.402343 0-113.171875 50.769531-113.171875 113.183594v55.160156c0 8.449219 6.847656 15.296875 15.292969 15.296875h123.605469l50.511718-71.855469c6.09375-8.671875 18.941407-8.65625 25.023438 0l50.511719 71.855469zm0 0"/>
    <path d="m290.980469 414.082031c0 8.441407-6.84375 15.296875-15.296875 15.296875-8.441406 0-15.292969-6.855468-15.292969-15.296875v-30.628906h-17.792969v43.519531c0 12.5 10.164063 22.664063 22.664063 22.664063h20.855469c12.5 0 22.664062-10.164063 22.664062-22.664063v-43.519531h-17.800781zm0 0"/>
  </g>
</svg>