<svg id="icon" xmlns="http://www.w3.org/2000/svg" viewBox="0 0 297 297" width="512" height="512" fill="#e6e619" fill-opacity="1">
  <g transform="translate(0,0)" style="touch-action: none;">
    <path d="M294.943,150.859c-2.787-4.447-15.897-24.469-38.049-44.607c-32.998-29.998-70.482-45.855-108.402-45.855 c-37.921,0-75.406,15.857-108.407,45.855C15.501,128.6,2.045,150.813,1.483,151.746c-0.046,0.076-0.067,0.133-0.108,0.207 c-2.043,3.58-1.811,8.084,0.712,11.447c0.567,0.756,14.168,18.721,38.88,36.691c32.841,23.887,70.02,36.512,107.52,36.512	s74.681-12.625,107.523-36.51c24.712-17.973,38.315-35.938,38.882-36.693C297.686,159.676,297.702,154.557,294.943,150.859z M242.386,121.33c12.041,10.881,21.241,21.871,27.209,29.758c-4.657,0.818-10.574,1.461-17.688,1.461	c-24.835,0-52.252-7.412-81.488-22.029c-27.013-13.508-53.199-20.355-77.83-20.355c-10.481,0-20.027,1.236-28.679,3.254	c26.708-21.309,55.11-32.107,84.581-32.107C181.414,81.311,213.006,94.775,242.386,121.33z M149.566,215.66	c-0.255,0.004-0.508,0.006-0.761,0.006c-30.753,0-57.03-24.543-58.756-55.059c-0.576-10.182,1.532-20.449,5.967-29.467 c14.75,0.443,30.273,3.752,46.367,9.863c-6.513,2.467-11.15,8.746-11.15,16.123c0,9.529,7.725,17.254,17.254,17.254	c9.53,0,17.255-7.725,17.255-17.254c0-2.188-0.423-4.27-1.165-6.195c14.216,6.877,28.109,12.195,41.607,15.93	C201.407,193.805,176.931,215.301,149.566,215.66z M24.399,157.406c7.854-7.486,24.003-19.863,48.444-24.496	c-2.939,9.27-4.228,19.109-3.676,28.879c0.802,14.186,5.504,27.418,13.009,38.691c-9.661-4.6-19.119-10.234-28.351-16.899 C40.133,173.697,30.127,163.703,24.399,157.406z M243.152,183.582c-9.23,6.662-18.688,12.297-28.347,16.897	c5.749-8.693,9.864-18.547,11.835-29.119c8.616,1.387,17.05,2.105,25.268,2.105c0,0,0,0,0.002,0c1.422,0,2.805-0.021,4.151-0.063 C252.219,176.703,247.908,180.148,243.152,183.582z"/>
  </g>
</svg>